<svg width="20" height="20" viewBox="0 0 20 20" fill="none" xmlns="http://www.w3.org/2000/svg">
<path d="M4.6425 6.57239C4.40375 4.99989 5.5125 3.58739 7.20625 3.06989C7.50683 2.97861 7.83087 3.00506 8.11267 3.14387C8.39446 3.28268 8.61292 3.52346 8.72375 3.81739L9.2675 5.26739C9.35504 5.50065 9.37086 5.75476 9.31296 5.99708C9.25505 6.23941 9.12604 6.4589 8.9425 6.62739L7.325 8.10864C7.24517 8.18173 7.18569 8.2743 7.15239 8.37729C7.11908 8.48027 7.11309 8.59014 7.135 8.69614L7.15 8.76114L7.18875 8.92364C7.39041 9.71303 7.69689 10.4719 8.1 11.1799C8.54016 11.9317 9.08569 12.6165 9.72 13.2136L9.77 13.2586C9.85075 13.3303 9.9487 13.3798 10.0543 13.4024C10.1599 13.425 10.2695 13.4198 10.3725 13.3874L12.4638 12.7286C12.7014 12.654 12.956 12.6521 13.1947 12.7232C13.4335 12.7942 13.6456 12.935 13.8038 13.1274L14.7938 14.3286C15.2063 14.8286 15.1563 15.5636 14.6825 16.0049C13.3863 17.2136 11.6038 17.4611 10.3638 16.4649C8.84315 15.2395 7.5617 13.744 6.58375 12.0536C5.59624 10.3655 4.93839 8.50566 4.6425 6.57239ZM8.445 8.77864L9.785 7.54864C10.1523 7.21181 10.4105 6.77289 10.5266 6.28823C10.6426 5.80357 10.6112 5.29529 10.4363 4.82864L9.89375 3.37864C9.67119 2.7871 9.23181 2.30246 8.66485 2.02316C8.0979 1.74387 7.44588 1.69085 6.84125 1.87489C4.7375 2.51864 3.04875 4.40489 3.40625 6.76114C3.65625 8.40614 4.2325 10.4986 5.50375 12.6836C6.55889 14.5063 7.94119 16.1187 9.58125 17.4399C11.4413 18.9336 13.9238 18.4236 15.5363 16.9211C15.9976 16.4915 16.2777 15.9021 16.3193 15.273C16.3609 14.6439 16.1608 14.0227 15.76 13.5361L14.77 12.3336C14.4533 11.9492 14.029 11.6682 13.5515 11.5266C13.074 11.3849 12.5651 11.3891 12.09 11.5386L10.3538 12.0849C9.90543 11.6227 9.51276 11.1096 9.18375 10.5561C8.86627 9.99641 8.61859 9.39988 8.44625 8.77989" fill="white"/>
</svg>
