<svg width="16" height="16" viewBox="0 0 16 16" fill="none" xmlns="http://www.w3.org/2000/svg">
<path fill-rule="evenodd" clip-rule="evenodd" d="M14.1379 1.17615C13.6539 1.2629 12.993 1.48205 12.0296 1.80393L4.62182 4.27283C3.68243 4.58558 3.00101 4.81272 2.50449 5.00676C1.98856 5.20765 1.76256 5.3412 1.66783 5.43137C1.50141 5.59115 1.36901 5.78291 1.27856 5.99514C1.18812 6.20737 1.1415 6.43569 1.1415 6.66639C1.1415 6.89709 1.18812 7.12541 1.27856 7.33764C1.36901 7.54987 1.50141 7.74163 1.66783 7.90141C1.76256 7.99272 1.98856 8.12512 2.50449 8.32602C3.21902 8.59176 3.93944 8.84142 4.6652 9.07479C4.99849 9.1855 5.22906 9.26198 5.43794 9.3727C5.94388 9.64071 6.35749 10.0547 6.62502 10.5609C6.73688 10.7698 6.81335 11.0004 6.92407 11.3337L6.93891 11.3782C7.25166 12.3164 7.4788 12.999 7.67284 13.4944C7.87373 14.0103 8.00728 14.2363 8.09859 14.331C8.25836 14.4973 8.45005 14.6295 8.66217 14.7199C8.8743 14.8102 9.10248 14.8568 9.33304 14.8568C9.5636 14.8568 9.79179 14.8102 10.0039 14.7199C10.216 14.6295 10.4077 14.4973 10.5675 14.331C10.6588 14.2363 10.7912 14.0103 10.9921 13.4944C11.1861 12.999 11.4144 12.3164 11.726 11.3782L14.1961 3.96921C14.5168 3.00585 14.736 2.34382 14.8216 1.861C14.9083 1.37248 14.8227 1.26176 14.7793 1.21952C14.7371 1.17615 14.6264 1.0894 14.1379 1.17615ZM13.9381 0.0541333C14.5202 -0.0485946 15.1309 -0.0428873 15.5875 0.41254C16.0429 0.869108 16.0486 1.47977 15.9459 2.06189C15.8431 2.63831 15.5966 3.37909 15.2953 4.28424L15.2781 4.3299L12.8092 11.74L12.8035 11.7571C12.5704 12.4806 12.3211 13.1987 12.0559 13.911C11.8562 14.4201 11.6564 14.847 11.3905 15.1232C11.1242 15.4004 10.8046 15.621 10.451 15.7717C10.0973 15.9223 9.71688 16 9.33247 16C8.94806 16 8.56762 15.9223 8.21398 15.7717C7.86033 15.621 7.54077 15.4004 7.27449 15.1232C7.00968 14.8458 6.80879 14.4201 6.60904 13.911C6.40358 13.3848 6.16731 12.6748 5.86141 11.7571L5.8557 11.74C5.72444 11.3462 5.67764 11.2115 5.616 11.0962C5.45556 10.7924 5.20738 10.5438 4.90376 10.3829C4.78961 10.3224 4.65378 10.2756 4.25999 10.1432L4.24287 10.1386C3.51959 9.90499 2.80147 9.65573 2.08901 9.39096C1.57994 9.19121 1.15304 8.99146 0.87682 8.72551C0.599587 8.45922 0.379015 8.13967 0.228341 7.78602C0.0776678 7.43238 0 7.05194 0 6.66753C0 6.28312 0.0776678 5.90268 0.228341 5.54904C0.379015 5.19539 0.599587 4.87583 0.87682 4.60955C1.15419 4.3436 1.57994 4.14385 2.08901 3.9441C2.6152 3.73864 3.32517 3.50237 4.24287 3.19647L4.25999 3.19076L11.669 0.721865L11.7158 0.705885C12.6209 0.40455 13.3617 0.158003 13.9381 0.0552752" fill="white"/>
</svg>
