<svg width="20" height="20" viewBox="0 0 20 20" fill="none" xmlns="http://www.w3.org/2000/svg">
<path d="M15.875 4.09155C15.111 3.31982 14.201 2.70794 13.198 2.2916C12.1951 1.87525 11.1193 1.66277 10.0333 1.66655C5.48334 1.66655 1.775 5.37489 1.775 9.92489C1.775 11.3832 2.15834 12.7999 2.875 14.0499L1.70834 18.3332L6.08334 17.1832C7.29167 17.8416 8.65 18.1916 10.0333 18.1916C14.5833 18.1916 18.2917 14.4832 18.2917 9.93322C18.2917 7.72489 17.4333 5.64989 15.875 4.09155ZM10.0333 16.7916C8.8 16.7916 7.59167 16.4582 6.53334 15.8332L6.28334 15.6832L3.68334 16.3666L4.375 13.8332L4.20834 13.5749C3.52312 12.4807 3.15929 11.2159 3.15834 9.92489C3.15834 6.14155 6.24167 3.05822 10.025 3.05822C11.8583 3.05822 13.5833 3.77489 14.875 5.07489C15.5146 5.71152 16.0214 6.46877 16.3662 7.30274C16.7109 8.13671 16.8867 9.03081 16.8833 9.93322C16.9 13.7166 13.8167 16.7916 10.0333 16.7916ZM13.8 11.6582C13.5917 11.5582 12.575 11.0582 12.3917 10.9832C12.2 10.9166 12.0667 10.8832 11.925 11.0832C11.7833 11.2916 11.3917 11.7582 11.275 11.8916C11.1583 12.0332 11.0333 12.0499 10.825 11.9416C10.6167 11.8416 9.95 11.6166 9.16667 10.9166C8.55 10.3666 8.14167 9.69155 8.01667 9.48322C7.9 9.27489 8 9.16655 8.10834 9.05822C8.2 8.96655 8.31667 8.81655 8.41667 8.69989C8.51667 8.58322 8.55834 8.49155 8.625 8.35822C8.69167 8.21655 8.65834 8.09989 8.60834 7.99989C8.55834 7.89989 8.14167 6.88322 7.975 6.46655C7.80834 6.06655 7.63334 6.11655 7.50834 6.10822H7.10834C6.96667 6.10822 6.75 6.15822 6.55834 6.36655C6.375 6.57489 5.84167 7.07489 5.84167 8.09155C5.84167 9.10822 6.58334 10.0916 6.68334 10.2249C6.78334 10.3666 8.14167 12.4499 10.2083 13.3416C10.7 13.5582 11.0833 13.6832 11.3833 13.7749C11.875 13.9332 12.325 13.9082 12.6833 13.8582C13.0833 13.7999 13.9083 13.3582 14.075 12.8749C14.25 12.3916 14.25 11.9832 14.1917 11.8916C14.1333 11.7999 14.0083 11.7582 13.8 11.6582Z" fill="white"/>
</svg>
