<svg width="76" height="76" viewBox="0 0 76 76" fill="none" xmlns="http://www.w3.org/2000/svg">
<path d="M22.1666 28.5L37.2716 14.9942C41.3756 11.3303 43.4245 9.5 45.9166 9.5C48.4088 9.5 50.4608 11.3303 54.5616 14.9942L69.6666 28.5M26.9166 25.3333V63.3333M64.9166 63.3333V25.3333" stroke="#470035" stroke-width="4.2" stroke-linecap="round" stroke-linejoin="round"/>
<path d="M11.0833 44.3334C13.7067 44.3334 15.8333 41.4979 15.8333 38.0001C15.8333 34.5023 13.7067 31.6667 11.0833 31.6667C8.45996 31.6667 6.33331 34.5023 6.33331 38.0001C6.33331 41.4979 8.45996 44.3334 11.0833 44.3334Z" stroke="#470035" stroke-width="4.2" stroke-linecap="round" stroke-linejoin="round"/>
<path d="M11.0833 44.3333V63.3333M6.33331 63.3333H69.6666M38 63.3333V50.6666C38 47.6804 38 46.1889 38.9278 45.2611C39.8556 44.3333 41.3471 44.3333 44.3333 44.3333H47.5C50.4861 44.3333 51.9776 44.3333 52.9055 45.2611C53.8333 46.1889 53.8333 47.6804 53.8333 50.6666V63.3333M42.75 34.8333H49.0833M42.75 25.3333H49.0833" stroke="#470035" stroke-width="4.2" stroke-linecap="round" stroke-linejoin="round"/>
</svg>
