<svg width="50" height="50" viewBox="0 0 50 50" fill="none" xmlns="http://www.w3.org/2000/svg">
<rect width="50" height="50" rx="10" fill="#CFB893" fill-opacity="0.3"/>
<g clip-path="url(#clip0_161_748)">
<path d="M15.1204 24.8199C15.0049 24.8199 14.9182 24.8776 14.8604 24.9932C14.8026 25.1088 14.8026 25.2243 14.8604 25.3399L15.9004 27.5932C15.9582 27.7088 16.0449 27.7954 16.1604 27.8532H16.3337L16.5071 27.7665L24.2204 24.2132L23.5271 31.4932C23.5271 31.6665 23.5849 31.811 23.7004 31.9265C24.0471 32.2154 24.4515 32.3599 24.9137 32.3599L25.2604 32.2732C25.896 32.0999 26.3582 31.551 26.6471 30.6265L29.6804 21.6132L35.7471 18.8399C36.6137 18.3776 37.2493 17.7854 37.6537 17.0632C38.0582 16.341 38.116 15.6621 37.8271 15.0265C37.6537 14.6799 37.4082 14.391 37.0904 14.1599C36.7726 13.9288 36.4115 13.7843 36.0071 13.7265C35.1404 13.611 34.3315 13.7554 33.5804 14.1599L26.6471 17.3665L19.1071 14.4199C18.1826 14.0732 17.4749 14.0876 16.9837 14.4632C16.4926 14.8388 16.2471 15.3443 16.2471 15.9799C16.2471 16.0954 16.3049 16.211 16.4204 16.3265L21.4471 19.7932L18.5871 21.1799L13.7337 19.8799C13.5026 19.8799 13.3582 19.9665 13.3004 20.1399L12.0871 22.3065C12.0293 22.4221 12.0149 22.5521 12.0437 22.6965C12.0726 22.841 12.1449 22.9132 12.2604 22.9132L15.9004 24.3865L15.1204 24.8199ZM17.2004 15.7199C17.2004 15.5465 17.3015 15.3732 17.5037 15.1999C17.706 15.0265 18.1537 15.0554 18.8471 15.2865L25.4337 17.8865L22.4004 19.3599L17.2004 15.7199ZM13.1271 22.3065L13.9071 20.9199L18.5004 22.0465C18.616 22.1043 18.7315 22.1043 18.8471 22.0465L33.9271 14.9399C34.5626 14.651 35.2271 14.5643 35.9204 14.6799C36.3826 14.6799 36.7293 14.8965 36.9604 15.3299C37.1915 15.7632 37.1337 16.2399 36.7871 16.7599C36.4404 17.2799 35.9493 17.6843 35.3137 17.9732L30.1137 20.3999L30.4604 19.5332C30.4604 19.3599 30.4315 19.2154 30.3737 19.0999C30.316 18.9843 30.2293 18.9121 30.1137 18.8832C29.9982 18.8543 29.8826 18.8688 29.7671 18.9265C29.6515 18.9843 29.5937 19.071 29.5937 19.1865L25.7804 30.3665C25.6071 31.0021 25.3904 31.3488 25.1304 31.4065C24.8704 31.4643 24.6537 31.4354 24.4804 31.3199L25.3471 21.7865C25.3471 21.671 25.3182 21.5554 25.2604 21.4399C25.2026 21.3243 25.1015 21.2665 24.9571 21.2665C24.8126 21.2665 24.6971 21.3099 24.6104 21.3965C24.5237 21.4832 24.4804 21.5843 24.4804 21.6999L24.3071 23.1732L16.5071 26.8132L15.9004 25.4265L17.2004 24.8199C17.3737 24.7621 17.4604 24.6321 17.4604 24.4299C17.4604 24.2276 17.3737 24.0688 17.2004 23.9532L13.1271 22.3065Z" fill="#470035"/>
</g>
<defs>
<clipPath id="clip0_161_748">
<rect width="26" height="26" fill="white" transform="matrix(1 0 0 -1 12 36)"/>
</clipPath>
</defs>
</svg>
