<svg width="50" height="50" viewBox="0 0 50 50" fill="none" xmlns="http://www.w3.org/2000/svg">
<rect width="50" height="50" rx="10" fill="#CFB893" fill-opacity="0.3"/>
<g clip-path="url(#clip0_161_756)">
<path d="M22.92 22.48C22.92 21.9022 22.7178 21.4111 22.3133 21.0067C21.9089 20.6022 21.4322 20.4 20.8833 20.4C20.3344 20.4 19.8578 20.6022 19.4533 21.0067C19.0489 21.4111 18.8467 21.9022 18.8467 22.48C18.8467 23.0578 19.0489 23.5489 19.4533 23.9533C19.8578 24.3578 20.3344 24.56 20.8833 24.56C21.4322 24.56 21.9089 24.3578 22.3133 23.9533C22.7178 23.5489 22.92 23.0578 22.92 22.48ZM19.6267 22.48C19.6267 22.1333 19.7567 21.83 20.0167 21.57C20.2767 21.31 20.58 21.18 20.9267 21.18C21.2733 21.18 21.5767 21.31 21.8367 21.57C22.0967 21.83 22.2267 22.1333 22.2267 22.48C22.2267 22.8267 22.0967 23.13 21.8367 23.39C21.5767 23.65 21.2733 23.78 20.9267 23.78C20.58 23.78 20.2767 23.65 20.0167 23.39C19.7567 23.13 19.6267 22.8267 19.6267 22.48ZM21.4467 15.5467C21.5622 15.5467 21.6489 15.5033 21.7067 15.4167C21.7644 15.33 21.7933 15.2289 21.7933 15.1133C21.7933 14.9978 21.7644 14.9111 21.7067 14.8533C21.6489 14.7956 21.5622 14.7667 21.4467 14.7667H20.32C20.2622 14.7667 20.19 14.7956 20.1033 14.8533C20.0167 14.9111 19.9733 14.9978 19.9733 15.1133C19.9733 15.2289 20.0167 15.33 20.1033 15.4167C20.19 15.5033 20.2622 15.5467 20.32 15.5467H21.4467ZM37.6533 35.22H34.7067L34.9667 34.96C35.2556 34.4978 35.3278 34.0067 35.1833 33.4867C35.0389 32.9667 34.7356 32.5622 34.2733 32.2733L32.54 31.1467L34.36 30.02C34.8222 29.7311 35.1111 29.3411 35.2267 28.85C35.3422 28.3589 35.2556 27.8822 34.9667 27.42C34.8511 27.2467 34.7067 27.0733 34.5333 26.9L32.54 25.6867L34.36 24.56C34.8222 24.2711 35.1111 23.8667 35.2267 23.3467C35.3422 22.8267 35.2556 22.3644 34.9667 21.96C34.5622 21.3244 34.0133 21.0067 33.32 21.0067H30.2C30.0844 21.0067 29.9833 21.05 29.8967 21.1367C29.81 21.2233 29.7667 21.31 29.7667 21.3967C29.7667 21.4833 29.81 21.57 29.8967 21.6567C29.9833 21.7433 30.0844 21.7867 30.2 21.7867H31.5867L29.0733 23.3467H26.7333V21.7867H28.64C28.7556 21.7867 28.8422 21.7433 28.9 21.6567C28.9578 21.57 28.9867 21.4833 28.9867 21.3967C28.9867 21.31 28.9578 21.2233 28.9 21.1367C28.8422 21.05 28.7556 21.0067 28.64 21.0067H26.7333C26.6756 20.7756 26.5311 20.5589 26.3 20.3567C26.0689 20.1544 25.8089 20.0533 25.52 20.0533H25.26V17.1067H26.6467C26.82 17.1067 26.9356 17.02 26.9933 16.8467C27.0511 16.6733 27.0222 16.5289 26.9067 16.4133L21.2733 11.82V10.3467C21.2733 10.2889 21.2444 10.2167 21.1867 10.13C21.1289 10.0433 21.0422 10 20.9267 10C20.8111 10 20.71 10.0433 20.6233 10.13C20.5367 10.2167 20.4933 10.2889 20.4933 10.3467V11.82L18.24 13.7267C18.1244 13.7844 18.0667 13.8711 18.0667 13.9867C18.0667 14.1022 18.0956 14.1889 18.1533 14.2467C18.2111 14.3044 18.2978 14.3478 18.4133 14.3767C18.5289 14.4056 18.6156 14.3911 18.6733 14.3333L20.9267 12.5133L25.6067 16.3267H16.2467L17.5467 15.2867C17.6044 15.2289 17.6333 15.1422 17.6333 15.0267C17.6333 14.9111 17.6044 14.81 17.5467 14.7233C17.4889 14.6367 17.4022 14.5933 17.2867 14.5933C17.1711 14.5933 17.0844 14.6222 17.0267 14.68L14.9467 16.4133C14.7733 16.5289 14.7156 16.6733 14.7733 16.8467C14.8311 17.02 14.9467 17.1067 15.12 17.1067H16.5933V23.6067C16.5933 23.7222 16.6222 23.8233 16.68 23.91C16.7378 23.9967 16.8244 24.04 16.94 24.04C17.0556 24.04 17.1567 23.9967 17.2433 23.91C17.33 23.8233 17.3733 23.7222 17.3733 23.6067V18.9267H24.48V26.0333H17.3733V25.1667C17.3733 25.0511 17.33 24.9644 17.2433 24.9067C17.1567 24.8489 17.0556 24.82 16.94 24.82C16.8244 24.82 16.7378 24.8489 16.68 24.9067C16.6222 24.9644 16.5933 25.0511 16.5933 25.1667V35.22H12.3467C12.2889 35.22 12.2167 35.2633 12.13 35.35C12.0433 35.4367 12 35.5233 12 35.61C12 35.6967 12.0433 35.7833 12.13 35.87C12.2167 35.9567 12.2889 36 12.3467 36H37.6533C37.7111 36 37.7833 35.9567 37.87 35.87C37.9567 35.7833 38 35.6967 38 35.61C38 35.5233 37.9567 35.4367 37.87 35.35C37.7833 35.2633 37.7111 35.22 37.6533 35.22ZM21.88 31.4933H19.9733V30.4533H21.88V31.4933ZM21.88 29.6733H19.9733V28.5467H21.88V29.6733ZM19.9733 32.2733H21.88V33.4H19.9733V32.2733ZM21.88 26.8133V27.8533H19.9733V26.8133H21.88ZM19.9733 34.18H21.88V35.22H19.9733V34.18ZM22.66 26.8133H24.48V35.22H22.66V26.8133ZM25.26 26.4667V25.08H25.52C25.8089 25.08 26.0689 24.9933 26.3 24.82C26.5311 24.6467 26.6756 24.4156 26.7333 24.1267H27.86C27.4556 24.4156 27.21 24.8056 27.1233 25.2967C27.0367 25.7878 27.1089 26.2644 27.34 26.7267C27.4556 26.9 27.6 27.0444 27.7733 27.16L29.7667 28.46L27.9467 29.5867C27.4844 29.8756 27.1956 30.2656 27.08 30.7567C26.9644 31.2478 27.0511 31.7244 27.34 32.1867C27.4556 32.36 27.6289 32.5333 27.86 32.7067L31.8467 35.22H25.26V26.4667ZM32.1933 33.2267C32.4244 32.88 32.7422 32.7067 33.1467 32.7067C33.3778 32.7067 33.58 32.7644 33.7533 32.88L33.9267 32.9667C34.2156 33.14 34.3889 33.3711 34.4467 33.66C34.5044 33.9489 34.4322 34.2522 34.23 34.57C34.0278 34.8878 33.7244 35.0467 33.32 35.0467C33.0889 35.0467 32.8867 34.9889 32.7133 34.8733L32.54 34.7867C32.3089 34.6133 32.15 34.3678 32.0633 34.05C31.9767 33.7322 32.02 33.4578 32.1933 33.2267ZM32.4533 32.0133C32.1067 32.1867 31.8178 32.4467 31.5867 32.7933C31.3556 33.14 31.24 33.5444 31.24 34.0067L29.68 32.9667C29.7956 32.9089 30.0556 32.7644 30.46 32.5333L31.8467 31.6667L32.4533 32.0133ZM34.4467 28.72C34.3889 29.0089 34.2156 29.24 33.9267 29.4133L29.5067 32.1867C29.3333 32.3022 29.16 32.36 28.9867 32.36C28.5822 32.36 28.2789 32.2011 28.0767 31.8833C27.8744 31.5656 27.8022 31.2478 27.86 30.93C27.9178 30.6122 28.0911 30.3667 28.38 30.1933L32.7133 27.42C32.8867 27.3044 33.0889 27.2467 33.32 27.2467C33.7244 27.2467 34.0278 27.4056 34.23 27.7233C34.4322 28.0411 34.5044 28.3733 34.4467 28.72ZM32.6267 26.64C32.5111 26.6978 32.3956 26.7556 32.28 26.8133L30.46 27.94L29.68 27.42C29.7956 27.42 30.0556 27.2756 30.46 26.9867L31.8467 26.12L32.6267 26.64ZM34.2733 22.3067C34.4467 22.5956 34.5044 22.8844 34.4467 23.1733C34.3889 23.4622 34.2156 23.6933 33.9267 23.8667L29.5933 26.64C29.42 26.7556 29.2178 26.8133 28.9867 26.8133C28.7556 26.8133 28.5533 26.7556 28.38 26.64C28.2067 26.5244 28.0911 26.4089 28.0333 26.2933C27.86 26.0044 27.8022 25.7156 27.86 25.4267C27.9178 25.1378 28.0911 24.9067 28.38 24.7333L32.7133 21.96C32.8867 21.8444 33.0889 21.7867 33.32 21.7867C33.7244 21.7867 34.0422 21.96 34.2733 22.3067ZM25.52 20.8333C25.6356 20.8333 25.7367 20.8767 25.8233 20.9633C25.91 21.05 25.9533 21.18 25.9533 21.3533V23.8667C25.9533 23.9822 25.91 24.0833 25.8233 24.17C25.7367 24.2567 25.6356 24.3 25.52 24.3H25.26V20.8333H25.52ZM17.3733 18.1467V17.1067H24.48V18.1467H17.3733ZM17.3733 26.8133H19.1933V35.22H17.3733V26.8133Z" fill="#470035"/>
</g>
<defs>
<clipPath id="clip0_161_756">
<rect width="26" height="26" fill="white" transform="matrix(1 0 0 -1 12 36)"/>
</clipPath>
</defs>
</svg>
