<svg width="50" height="50" viewBox="0 0 50 50" fill="none" xmlns="http://www.w3.org/2000/svg">
<rect width="50" height="50" rx="10" fill="#CFB893" fill-opacity="0.3"/>
<g clip-path="url(#clip0_161_724)">
<path d="M37.74 22.6533L26.7333 11.82C26.2711 11.3578 25.6933 11.1267 25 11.1267C24.3067 11.1267 23.7289 11.3578 23.2667 11.82L12.26 22.6533C12.0867 22.8267 12 23.0144 12 23.2167C12 23.4189 12.0722 23.5922 12.2167 23.7367C12.3611 23.8811 12.5344 23.9533 12.7367 23.9533C12.9389 23.9533 13.1267 23.8955 13.3 23.78L14.1667 22.9133V31.58C14.1667 32.5044 14.4844 33.2844 15.12 33.92C15.7556 34.5555 16.5356 34.8733 17.46 34.8733H32.54C33.4644 34.8733 34.2444 34.5555 34.88 33.92C35.5156 33.2844 35.8333 32.5044 35.8333 31.58V22.9133L36.7 23.78C36.8733 23.8955 37.0611 23.9533 37.2633 23.9533C37.4656 23.9533 37.6389 23.8811 37.7833 23.7367C37.9278 23.5922 38 23.4189 38 23.2167C38 23.0144 37.9133 22.8267 37.74 22.6533ZM34.36 31.58C34.36 32.1 34.1722 32.5333 33.7967 32.88C33.4211 33.2267 33.0022 33.4 32.54 33.4H17.46C16.9978 33.4 16.5789 33.2267 16.2033 32.88C15.8278 32.5333 15.64 32.1 15.64 31.58V21.44L24.3067 12.86C24.4222 12.8022 24.5378 12.7444 24.6533 12.6867C25 12.5711 25.3178 12.6289 25.6067 12.86L34.36 21.44V31.58ZM22.7467 19.9667V22.48H20.2333C20.06 22.48 19.9011 22.5522 19.7567 22.6967C19.6122 22.8411 19.54 23 19.54 23.1733V26.2933C19.54 26.4667 19.6122 26.6255 19.7567 26.77C19.9011 26.9144 20.06 26.9867 20.2333 26.9867H22.7467V29.5C22.7467 29.6733 22.8189 29.8322 22.9633 29.9767C23.1078 30.1211 23.2667 30.1933 23.44 30.1933H26.4733C26.7044 30.1933 26.8922 30.1211 27.0367 29.9767C27.1811 29.8322 27.2533 29.6733 27.2533 29.5V26.9867H29.7667C29.94 26.9867 30.0989 26.9144 30.2433 26.77C30.3878 26.6255 30.46 26.4667 30.46 26.2933V23.1733C30.46 23 30.3878 22.8411 30.2433 22.6967C30.0989 22.5522 29.94 22.48 29.7667 22.48H27.2533V19.9667C27.2533 19.7933 27.1811 19.6344 27.0367 19.49C26.8922 19.3455 26.7044 19.2733 26.4733 19.2733H23.44C23.2667 19.2733 23.1078 19.3455 22.9633 19.49C22.8189 19.6344 22.7467 19.7933 22.7467 19.9667ZM24.22 23.1733V20.7467H25.78V23.1733C25.78 23.4044 25.8522 23.5922 25.9967 23.7367C26.1411 23.8811 26.3 23.9533 26.4733 23.9533H28.9867V25.5133H26.4733C26.3 25.5133 26.1411 25.5855 25.9967 25.73C25.8522 25.8744 25.78 26.0622 25.78 26.2933V28.72H24.22V26.2933C24.22 26.0622 24.1478 25.8744 24.0033 25.73C23.8589 25.5855 23.6711 25.5133 23.44 25.5133H21.0133V23.9533H23.44C23.6711 23.9533 23.8589 23.8811 24.0033 23.7367C24.1478 23.5922 24.22 23.4044 24.22 23.1733Z" fill="#470035"/>
</g>
<defs>
<clipPath id="clip0_161_724">
<rect width="26" height="26" fill="white" transform="matrix(1 0 0 -1 12 36)"/>
</clipPath>
</defs>
</svg>
