<svg width="50" height="50" viewBox="0 0 50 50" fill="none" xmlns="http://www.w3.org/2000/svg">
<rect width="50" height="50" rx="10" fill="#CFB893" fill-opacity="0.3"/>
<g clip-path="url(#clip0_161_732)">
<path d="M25 10C22.6311 10 20.45 10.5778 18.4567 11.7333C16.4633 12.8889 14.8889 14.4633 13.7333 16.4567C12.5778 18.45 12 20.6311 12 23C12 24.9644 12.4333 26.8278 13.3 28.59C14.1667 30.3522 15.38 31.8689 16.94 33.14L13.9933 36H36.0067L33.06 33.14C34.62 31.8689 35.8333 30.3522 36.7 28.59C37.5667 26.8278 38 24.9644 38 23C38 20.6311 37.4222 18.45 36.2667 16.4567C35.1111 14.4633 33.5367 12.8889 31.5433 11.7333C29.55 10.5778 27.3689 10 25 10ZM17.72 34.44L19.4533 32.7067H30.5467L32.28 34.44H17.72ZM30.3733 22.22H25.78V19.1867H30.3733V22.22ZM19.8 17.6267C19.9733 17.2222 20.2478 16.8756 20.6233 16.5867C20.9989 16.2978 21.4467 16.1533 21.9667 16.1533H28.0333C28.5533 16.1533 29.0011 16.2978 29.3767 16.5867C29.7522 16.8756 30.0267 17.2222 30.2 17.6267H19.8ZM19.6267 19.1867H24.22V22.22H19.6267V19.1867ZM19.6267 23.78H30.3733V28.3733H19.6267V23.78ZM27.6867 29.8467L29.0733 31.1467H20.9267L22.3133 29.8467H27.6867ZM32.02 32.0133L29.8533 29.8467H31.8467V18.4067C31.8467 17.3667 31.4711 16.4711 30.72 15.72C29.9689 14.9689 29.0733 14.5933 28.0333 14.5933H21.9667C20.9267 14.5933 20.0311 14.9689 19.28 15.72C18.5289 16.4711 18.1533 17.3667 18.1533 18.4067V29.8467H20.1467L17.98 32.0133C16.5933 30.9156 15.51 29.5722 14.73 27.9833C13.95 26.3944 13.56 24.7333 13.56 23C13.56 20.92 14.0656 18.9989 15.0767 17.2367C16.0878 15.4744 17.4744 14.0878 19.2367 13.0767C20.9989 12.0656 22.92 11.56 25 11.56C27.08 11.56 29.0011 12.0656 30.7633 13.0767C32.5256 14.0878 33.9122 15.4744 34.9233 17.2367C35.9344 18.9989 36.44 20.92 36.44 23C36.44 24.7333 36.05 26.3944 35.27 27.9833C34.49 29.5722 33.4067 30.9156 32.02 32.0133ZM21.9667 24.9933L23.0067 26.0333L21.9667 27.16L20.84 26.0333L21.9667 24.9933ZM28.0333 24.9933L29.16 26.0333L28.0333 27.16L26.9933 26.0333L28.0333 24.9933Z" fill="#470035"/>
</g>
<defs>
<clipPath id="clip0_161_732">
<rect width="26" height="26" fill="white" transform="matrix(1 0 0 -1 12 36)"/>
</clipPath>
</defs>
</svg>
