<svg width="50" height="50" viewBox="0 0 50 50" fill="none" xmlns="http://www.w3.org/2000/svg">
<rect width="50" height="50" rx="10" fill="#CFB893" fill-opacity="0.3"/>
<path d="M31.4133 22.48V21.18C31.4133 20.8334 31.2833 20.5156 31.0233 20.2267C30.7633 19.9378 30.4311 19.7934 30.0267 19.7934H26.1267V17.02C26.1267 16.6156 25.9822 16.2834 25.6933 16.0234C25.4044 15.7634 25.0578 15.6334 24.6533 15.6334H24.1333V14.16C24.1333 13.8134 23.9889 13.4956 23.7 13.2067C23.4111 12.9178 23.0644 12.7734 22.66 12.7734H20.84V11.3C20.84 11.1267 20.7967 10.9967 20.71 10.91C20.6233 10.8234 20.5222 10.78 20.4067 10.78C20.2911 10.78 20.19 10.8234 20.1033 10.91C20.0167 10.9967 19.9733 11.1267 19.9733 11.3V12.7734H18.0667C17.6622 12.7734 17.33 12.9178 17.07 13.2067C16.81 13.4956 16.68 13.8134 16.68 14.16V15.6334H16.0733C15.6689 15.6334 15.3367 15.7634 15.0767 16.0234C14.8167 16.2834 14.6867 16.6156 14.6867 17.02V30.4534C14.6867 30.5689 14.73 30.67 14.8167 30.7567C14.9033 30.8434 15.0044 30.8867 15.12 30.8867H21.9667C22.4867 32.1578 23.31 33.1834 24.4367 33.9634C25.5633 34.7434 26.8489 35.1334 28.2933 35.1334C29.5067 35.1334 30.6333 34.83 31.6733 34.2234C32.7133 33.6167 33.5367 32.8078 34.1433 31.7967C34.75 30.7856 35.0533 29.6445 35.0533 28.3734C35.0533 27.1023 34.7211 25.9467 34.0567 24.9067C33.3922 23.8667 32.5111 23.0578 31.4133 22.48ZM30.0267 20.7467C30.1422 20.7467 30.2433 20.79 30.33 20.8767C30.4167 20.9634 30.46 21.0645 30.46 21.18V22.0467C29.8244 21.7578 29.1167 21.6134 28.3367 21.6134C27.5567 21.6134 26.82 21.7289 26.1267 21.96V20.7467H30.0267ZM17.6333 14.16C17.6333 14.0445 17.6767 13.9434 17.7633 13.8567C17.85 13.77 17.9511 13.7267 18.0667 13.7267H22.66C22.8333 13.7267 22.9633 13.77 23.05 13.8567C23.1367 13.9434 23.18 14.0445 23.18 14.16V15.6334H17.6333V14.16ZM15.64 17.02C15.64 16.9045 15.6833 16.8034 15.77 16.7167C15.8567 16.63 15.9578 16.5867 16.0733 16.5867H24.6533C24.8267 16.5867 24.9567 16.63 25.0433 16.7167C25.13 16.8034 25.1733 16.9045 25.1733 17.02V22.3934C24.7689 22.6245 24.4222 22.8556 24.1333 23.0867V22.3934C24.1333 22.2778 24.0755 22.1767 23.96 22.09C23.8444 22.0034 23.7289 21.96 23.6133 21.96H21.36C21.2444 21.96 21.1433 22.0034 21.0567 22.09C20.97 22.1767 20.9267 22.2778 20.9267 22.3934V24.6467C20.9267 24.7623 20.97 24.8778 21.0567 24.9934C21.1433 25.1089 21.2444 25.1667 21.36 25.1667H22.3133C22.14 25.5134 21.9955 25.86 21.88 26.2067H18.4133C18.24 26.2067 18.11 26.25 18.0233 26.3367C17.9367 26.4234 17.8933 26.5245 17.8933 26.64V29.9334H15.64V17.02ZM23.18 23.9534C23.1222 24.0689 23.0644 24.1556 23.0067 24.2134H21.88V22.9134H23.18V23.9534ZM18.8467 29.9334V27.16H21.62C21.5622 27.5645 21.5333 27.9978 21.5333 28.46C21.5333 28.9223 21.5911 29.4134 21.7067 29.9334H18.8467ZM28.2933 34.2667C27.2533 34.2667 26.2855 33.9923 25.39 33.4434C24.4944 32.8945 23.7867 32.1867 23.2667 31.32C22.7467 30.4534 22.4867 29.4856 22.4867 28.4167C22.4867 27.3478 22.7467 26.3656 23.2667 25.47C23.7867 24.5745 24.4944 23.8667 25.39 23.3467C26.2855 22.8267 27.2533 22.5667 28.2933 22.5667C29.3333 22.5667 30.3011 22.8267 31.1967 23.3467C32.0922 23.8667 32.8 24.5745 33.32 25.47C33.84 26.3656 34.1 27.3478 34.1 28.4167C34.1 29.4856 33.84 30.4534 33.32 31.32C32.8 32.1867 32.0922 32.8945 31.1967 33.4434C30.3011 33.9923 29.3333 34.2667 28.2933 34.2667ZM19.8 18.2334C19.8 18.06 19.7567 17.93 19.67 17.8434C19.5833 17.7567 19.4822 17.7134 19.3667 17.7134H17.1133C16.9978 17.7134 16.8967 17.7567 16.81 17.8434C16.7233 17.93 16.68 18.06 16.68 18.2334V20.4C16.68 20.5734 16.7233 20.7034 16.81 20.79C16.8967 20.8767 16.9978 20.92 17.1133 20.92H19.3667C19.4822 20.92 19.5833 20.8767 19.67 20.79C19.7567 20.7034 19.8 20.5734 19.8 20.4V18.2334ZM17.6333 18.6667H18.9333V19.9667H17.6333V18.6667ZM24.1333 18.2334C24.1333 18.06 24.0755 17.93 23.96 17.8434C23.8444 17.7567 23.7289 17.7134 23.6133 17.7134H21.4467C21.2733 17.7134 21.1433 17.7567 21.0567 17.8434C20.97 17.93 20.9267 18.06 20.9267 18.2334V20.4C20.9267 20.5734 20.97 20.7034 21.0567 20.79C21.1433 20.8767 21.2733 20.92 21.4467 20.92H23.6133C23.7289 20.92 23.8444 20.8767 23.96 20.79C24.0755 20.7034 24.1333 20.5734 24.1333 20.4V18.2334ZM21.88 18.6667H23.18V19.9667H21.88V18.6667ZM19.8 22.3934C19.8 22.2778 19.7567 22.1767 19.67 22.09C19.5833 22.0034 19.4822 21.96 19.3667 21.96H17.1133C16.9978 21.96 16.8967 22.0034 16.81 22.09C16.7233 22.1767 16.68 22.2778 16.68 22.3934V24.6467C16.68 24.7623 16.7233 24.8634 16.81 24.95C16.8967 25.0367 16.9978 25.08 17.1133 25.08H19.3667C19.4822 25.08 19.5833 25.0367 19.67 24.95C19.7567 24.8634 19.8 24.7623 19.8 24.6467V22.3934ZM17.6333 22.9134H18.9333V24.2134H17.6333V22.9134ZM28.2933 23.6934C27.2533 23.6934 26.3722 24.0689 25.65 24.82C24.9278 25.5711 24.5667 26.4811 24.5667 27.55C24.5667 28.6189 24.9133 29.5 25.6067 30.1934L27.86 32.9667C27.9755 33.0823 28.0911 33.14 28.2067 33.14C28.38 33.14 28.5244 33.0823 28.64 32.9667L30.8933 30.1934C31.6444 29.4423 32.02 28.5467 32.02 27.5067C32.02 26.4667 31.6589 25.5711 30.9367 24.82C30.2144 24.0689 29.3333 23.6934 28.2933 23.6934ZM30.2 29.5867L28.2067 31.9267L26.3 29.5867C25.7222 29.0089 25.4478 28.33 25.4767 27.55C25.5055 26.77 25.7944 26.0911 26.3433 25.5134C26.8922 24.9356 27.5422 24.6467 28.2933 24.6467C29.1022 24.6467 29.7667 24.9211 30.2867 25.47C30.8067 26.0189 31.0667 26.6978 31.0667 27.5067C31.0667 28.3156 30.7778 29.0089 30.2 29.5867ZM28.2933 25.2534C27.7155 25.2534 27.2244 25.4556 26.82 25.86C26.4155 26.2645 26.2133 26.7556 26.2133 27.3334C26.2133 27.9111 26.4155 28.4023 26.82 28.8067C27.2244 29.2111 27.7155 29.4134 28.2933 29.4134C28.8711 29.4134 29.3622 29.2111 29.7667 28.8067C30.1711 28.4023 30.3733 27.9111 30.3733 27.3334C30.3733 26.7556 30.1711 26.2645 29.7667 25.86C29.3622 25.4556 28.8711 25.2534 28.2933 25.2534ZM28.2933 28.46C27.9467 28.46 27.6722 28.3445 27.47 28.1134C27.2678 27.8823 27.1667 27.6078 27.1667 27.29C27.1667 26.9723 27.2678 26.7123 27.47 26.51C27.6722 26.3078 27.9322 26.2067 28.25 26.2067C28.5678 26.2067 28.8422 26.3078 29.0733 26.51C29.3044 26.7123 29.42 26.9723 29.42 27.29C29.42 27.6078 29.3044 27.8823 29.0733 28.1134C28.8422 28.3445 28.5822 28.46 28.2933 28.46Z" fill="#470035"/>
</svg>
