<svg width="50" height="50" viewBox="0 0 50 50" fill="none" xmlns="http://www.w3.org/2000/svg">
<rect width="50" height="50" rx="10" fill="#CFB893" fill-opacity="0.3"/>
<g clip-path="url(#clip0_161_716)">
<path d="M36.44 28.5467V17.9733L37.48 17.6267C37.8267 17.5111 38 17.28 38 16.9333C38 16.5867 37.8267 16.3267 37.48 16.1533L25.26 11.6467C25.0867 11.5889 24.9133 11.5889 24.74 11.6467L12.52 16.1533C12.1733 16.3267 12 16.5867 12 16.9333C12 17.28 12.1733 17.5111 12.52 17.6267L17.5467 19.5333C16.9111 21.3822 16.5933 23.1444 16.5933 24.82V25.2533C16.5933 25.5422 16.7089 25.7589 16.94 25.9033C17.1711 26.0478 17.4311 26.0622 17.72 25.9467C18.0089 25.8311 18.3556 25.7156 18.76 25.6C19.6844 25.3689 20.4933 25.2533 21.1867 25.2533C21.88 25.2533 22.6311 25.4844 23.44 25.9467C23.9022 26.1778 24.2778 26.4089 24.5667 26.64C24.6822 26.7556 24.8267 26.8133 25 26.8133C25.1733 26.8133 25.3178 26.7556 25.4333 26.64C25.8378 26.3511 26.3 26.0911 26.82 25.86C27.5711 25.4556 28.2356 25.2533 28.8133 25.2533C29.5067 25.2533 30.3156 25.3689 31.24 25.6C31.7022 25.7156 32.0633 25.8311 32.3233 25.9467C32.5833 26.0622 32.8289 26.0478 33.06 25.9033C33.2911 25.7589 33.4067 25.5422 33.4067 25.2533V24.9067C33.4067 23.1733 33.0889 21.3822 32.4533 19.5333L34.9667 18.58V28.5467C34.5622 28.7778 34.2156 29.1533 33.9267 29.6733C33.58 30.3667 33.4067 31.1756 33.4067 32.1V33.66C33.4067 33.8911 33.4789 34.0789 33.6233 34.2233C33.7678 34.3678 33.9556 34.44 34.1867 34.44H37.22C37.4511 34.44 37.6389 34.3678 37.7833 34.2233C37.9278 34.0789 38 33.8911 38 33.66V32.1C38 31.1756 37.8267 30.3667 37.48 29.6733C37.1911 29.1533 36.8444 28.7778 36.44 28.5467ZM25 13.12L35.0533 16.9333L25 20.66L14.9467 16.9333L25 13.12ZM31.8467 24.2133C30.7489 23.9244 29.7378 23.78 28.8133 23.78C27.6 23.78 26.3289 24.2133 25 25.08C23.6711 24.2133 22.4 23.78 21.1867 23.78C20.2622 23.78 19.2511 23.9244 18.1533 24.2133C18.1533 23.4622 18.2256 22.7689 18.37 22.1333C18.5144 21.4978 18.7311 20.8044 19.02 20.0533L24.74 22.22C24.9133 22.2778 25.0867 22.2778 25.26 22.22L30.98 20.0533C31.2689 20.8044 31.4856 21.4978 31.63 22.1333C31.7744 22.7689 31.8467 23.4622 31.8467 24.2133ZM36.44 32.88H34.9667V32.1C34.9667 31.4067 35.0822 30.8289 35.3133 30.3667C35.4867 30.02 35.6167 29.8467 35.7033 29.8467C35.79 29.8467 35.92 30.02 36.0933 30.3667C36.3244 30.8289 36.44 31.4067 36.44 32.1V32.88Z" fill="#470035"/>
</g>
<defs>
<clipPath id="clip0_161_716">
<rect width="26" height="26" fill="white" transform="matrix(1 0 0 -1 12 36)"/>
</clipPath>
</defs>
</svg>
