<svg width="46" height="45" viewBox="0 0 46 45" fill="none" xmlns="http://www.w3.org/2000/svg">
<g clip-path="url(#clip0_218_428)">
<path d="M41.4405 23.85L39.7905 24.75C38.9905 25.25 38.2405 25.25 37.5405 24.75L35.8905 23.85C35.1905 23.35 34.3905 23.1 33.4905 23.1C32.5905 23.1 31.7405 23.35 30.9405 23.85L29.2905 24.75C28.5905 25.25 27.8405 25.25 27.0405 24.75L24.9405 23.55V5.4C24.9405 4.7 25.2155 4.075 25.7655 3.525C26.3155 2.975 26.9905 2.7 27.7905 2.7C28.5905 2.7 29.2655 2.975 29.8155 3.525C30.3655 4.075 30.6405 4.7 30.6405 5.4V8.4H33.3405V5.4C33.3405 3.9 32.7905 2.625 31.6905 1.575C30.5905 0.524998 29.2905 0 27.7905 0C26.2905 0 25.0155 0.524998 23.9655 1.575C22.9155 2.625 22.3905 3.9 22.3905 5.4V15.9H11.2905V5.4C11.2905 4.7 11.5655 4.075 12.1155 3.525C12.6655 2.975 13.3405 2.7 14.1405 2.7C14.9405 2.7 15.6155 2.975 16.1655 3.525C16.7155 4.075 16.9905 4.7 16.9905 5.4V8.4H19.5405V5.4C19.5405 3.9 19.0155 2.625 17.9655 1.575C16.9155 0.524998 15.6405 0 14.1405 0C12.6405 0 11.3405 0.524998 10.2405 1.575C9.14047 2.625 8.59047 3.9 8.59047 5.4V24.6L8.44047 24.75C7.64047 25.25 6.89047 25.25 6.19047 24.75L4.54047 23.85L3.19047 26.1L4.69047 27C5.49047 27.5 6.34047 27.75 7.24047 27.75C8.14047 27.75 8.99047 27.5 9.79047 27L11.4405 26.1C12.1405 25.6 12.8905 25.6 13.6905 26.1L15.1905 27C15.9905 27.5 16.8405 27.75 17.7405 27.75C18.6405 27.75 19.4405 27.5 20.1405 27L21.7905 26.1C22.5905 25.6 23.3905 25.6 24.1905 26.1L25.6905 27C26.4905 27.5 27.3155 27.75 28.1655 27.75C29.0155 27.75 29.8405 27.5 30.6405 27L32.2905 26.1C33.0905 25.6 33.8405 25.6 34.5405 26.1L36.1905 27C36.8905 27.5 37.6905 27.75 38.5905 27.75C39.4905 27.75 40.3405 27.5 41.1405 27L42.7905 26.1L41.4405 23.85ZM22.3905 23.1C21.6905 23.2 21.0405 23.45 20.4405 23.85L18.7905 24.75C18.0905 25.25 17.3405 25.25 16.5405 24.75L15.0405 23.85C13.8405 23.15 12.5905 22.95 11.2905 23.25V18.6H22.3905V23.1ZM41.4405 32.55L39.7905 33.6C38.9905 34 38.2405 34 37.5405 33.6L35.8905 32.7C35.1905 32.2 34.3905 31.95 33.4905 31.95C32.5905 31.95 31.7405 32.15 30.9405 32.55L29.2905 33.6C28.5905 34 27.8405 34 27.0405 33.6L25.5405 32.7C24.7405 32.2 23.8905 31.95 22.9905 31.95C22.0905 31.95 21.2405 32.15 20.4405 32.55L18.7905 33.6C18.0905 34 17.3405 34 16.5405 33.6L15.0405 32.7C14.2405 32.2 13.3905 31.95 12.4905 31.95C11.5905 31.95 10.7905 32.15 10.0905 32.55L8.44047 33.6C7.64047 34 6.89047 34 6.19047 33.6L4.54047 32.7L3.19047 34.95L4.69047 35.85C5.49047 36.25 6.34047 36.475 7.24047 36.525C8.14047 36.575 8.99047 36.35 9.79047 35.85L11.4405 34.8C12.1405 34.4 12.8905 34.45 13.6905 34.95L15.1905 35.85C15.9905 36.25 16.8405 36.475 17.7405 36.525C18.6405 36.575 19.4405 36.35 20.1405 35.85L21.7905 34.8C22.5905 34.4 23.3905 34.45 24.1905 34.95L25.6905 35.85C26.4905 36.25 27.3155 36.45 28.1655 36.45C29.0155 36.45 29.8405 36.25 30.6405 35.85L32.2905 34.8C33.0905 34.4 33.8405 34.45 34.5405 34.95L36.1905 35.85C36.8905 36.25 37.6905 36.475 38.5905 36.525C39.4905 36.575 40.3405 36.35 41.1405 35.85L42.7905 34.8L41.4405 32.55ZM41.4405 41.1L39.7905 42C38.9905 42.5 38.2405 42.5 37.5405 42L35.8905 41.1C35.1905 40.6 34.3905 40.35 33.4905 40.35C32.5905 40.35 31.7405 40.6 30.9405 41.1L29.2905 42C28.5905 42.5 27.8405 42.5 27.0405 42L25.5405 41.1C24.7405 40.6 23.8905 40.35 22.9905 40.35C22.0905 40.35 21.2405 40.6 20.4405 41.1L18.7905 42C18.0905 42.5 17.3405 42.5 16.5405 42L15.0405 41.1C14.2405 40.6 13.3905 40.35 12.4905 40.35C11.5905 40.35 10.7905 40.6 10.0905 41.1L8.44047 42C7.64047 42.5 6.89047 42.5 6.19047 42L4.54047 41.1L3.19047 43.35L4.69047 44.25C5.49047 44.75 6.34047 45 7.24047 45C8.14047 45 8.99047 44.8 9.79047 44.4L11.4405 43.35C12.1405 42.95 12.8905 42.95 13.6905 43.35L15.1905 44.25C15.9905 44.75 16.8405 45 17.7405 45C18.6405 45 19.4405 44.8 20.1405 44.4L21.7905 43.35C22.5905 42.95 23.3905 42.95 24.1905 43.35L25.6905 44.25C26.4905 44.75 27.3155 45 28.1655 45C29.0155 45 29.8405 44.8 30.6405 44.4L32.2905 43.35C33.0905 42.95 33.8405 42.95 34.5405 43.35L36.1905 44.25C36.8905 44.75 37.6905 45 38.5905 45C39.4905 45 40.3405 44.8 41.1405 44.4L42.7905 43.35L41.4405 41.1Z" fill="#470035"/>
</g>
<defs>
<clipPath id="clip0_218_428">
<rect width="45.02" height="45" fill="white" transform="matrix(1 0 0 -1 0.480469 45)"/>
</clipPath>
</defs>
</svg>
