<svg width="46" height="45" viewBox="0 0 46 45" fill="none" xmlns="http://www.w3.org/2000/svg">
<g clip-path="url(#clip0_218_500)">
<path d="M19.3905 21.6C19.3905 20.6 19.0405 19.75 18.3405 19.05C17.6405 18.35 16.8155 18 15.8655 18C14.9155 18 14.0905 18.35 13.3905 19.05C12.6905 19.75 12.3405 20.6 12.3405 21.6C12.3405 22.6 12.6905 23.45 13.3905 24.15C14.0905 24.85 14.9155 25.2 15.8655 25.2C16.8155 25.2 17.6405 24.85 18.3405 24.15C19.0405 23.45 19.3905 22.6 19.3905 21.6ZM13.6905 21.6C13.6905 21 13.9155 20.475 14.3655 20.025C14.8155 19.575 15.3405 19.35 15.9405 19.35C16.5405 19.35 17.0655 19.575 17.5155 20.025C17.9655 20.475 18.1905 21 18.1905 21.6C18.1905 22.2 17.9655 22.725 17.5155 23.175C17.0655 23.625 16.5405 23.85 15.9405 23.85C15.3405 23.85 14.8155 23.625 14.3655 23.175C13.9155 22.725 13.6905 22.2 13.6905 21.6ZM16.8405 9.6C17.0405 9.6 17.1905 9.525 17.2905 9.375C17.3905 9.225 17.4405 9.05 17.4405 8.85C17.4405 8.65 17.3905 8.5 17.2905 8.4C17.1905 8.3 17.0405 8.25 16.8405 8.25H14.8905C14.7905 8.25 14.6655 8.3 14.5155 8.4C14.3655 8.5 14.2905 8.65 14.2905 8.85C14.2905 9.05 14.3655 9.225 14.5155 9.375C14.6655 9.525 14.7905 9.6 14.8905 9.6H16.8405ZM44.8905 43.65H39.7905L40.2405 43.2C40.7405 42.4 40.8655 41.55 40.6155 40.65C40.3655 39.75 39.8405 39.05 39.0405 38.55L36.0405 36.6L39.1905 34.65C39.9905 34.15 40.4905 33.475 40.6905 32.625C40.8905 31.775 40.7405 30.95 40.2405 30.15C40.0405 29.85 39.7905 29.55 39.4905 29.25L36.0405 27.15L39.1905 25.2C39.9905 24.7 40.4905 24 40.6905 23.1C40.8905 22.2 40.7405 21.4 40.2405 20.7C39.5405 19.6 38.5905 19.05 37.3905 19.05H31.9905C31.7905 19.05 31.6155 19.125 31.4655 19.275C31.3155 19.425 31.2405 19.575 31.2405 19.725C31.2405 19.875 31.3155 20.025 31.4655 20.175C31.6155 20.325 31.7905 20.4 31.9905 20.4H34.3905L30.0405 23.1H25.9905V20.4H29.2905C29.4905 20.4 29.6405 20.325 29.7405 20.175C29.8405 20.025 29.8905 19.875 29.8905 19.725C29.8905 19.575 29.8405 19.425 29.7405 19.275C29.6405 19.125 29.4905 19.05 29.2905 19.05H25.9905C25.8905 18.65 25.6405 18.275 25.2405 17.925C24.8405 17.575 24.3905 17.4 23.8905 17.4H23.4405V12.3H25.8405C26.1405 12.3 26.3405 12.15 26.4405 11.85C26.5405 11.55 26.4905 11.3 26.2905 11.1L16.5405 3.15V0.599998C16.5405 0.5 16.4905 0.375 16.3905 0.224998C16.2905 0.0749969 16.1405 0 15.9405 0C15.7405 0 15.5655 0.0749969 15.4155 0.224998C15.2655 0.375 15.1905 0.5 15.1905 0.599998V3.15L11.2905 6.45C11.0905 6.55 10.9905 6.7 10.9905 6.9C10.9905 7.1 11.0405 7.25 11.1405 7.35C11.2405 7.45 11.3905 7.525 11.5905 7.575C11.7905 7.625 11.9405 7.6 12.0405 7.5L15.9405 4.35L24.0405 10.95H7.84048L10.0905 9.15C10.1905 9.05 10.2405 8.9 10.2405 8.7C10.2405 8.5 10.1905 8.325 10.0905 8.175C9.99048 8.025 9.84048 7.95 9.64048 7.95C9.44048 7.95 9.29048 8 9.19048 8.1L5.59048 11.1C5.29048 11.3 5.19048 11.55 5.29048 11.85C5.39048 12.15 5.59048 12.3 5.89048 12.3H8.44048V23.55C8.44048 23.75 8.49048 23.925 8.59048 24.075C8.69048 24.225 8.84048 24.3 9.04048 24.3C9.24048 24.3 9.41548 24.225 9.56548 24.075C9.71548 23.925 9.79048 23.75 9.79048 23.55V15.45H22.0905V27.75H9.79048V26.25C9.79048 26.05 9.71548 25.9 9.56548 25.8C9.41548 25.7 9.24048 25.65 9.04048 25.65C8.84048 25.65 8.69048 25.7 8.59048 25.8C8.49048 25.9 8.44048 26.05 8.44048 26.25V43.65H1.09048C0.990479 43.65 0.865479 43.725 0.715479 43.875C0.565479 44.025 0.490479 44.175 0.490479 44.325C0.490479 44.475 0.565479 44.625 0.715479 44.775C0.865479 44.925 0.990479 45 1.09048 45H44.8905C44.9905 45 45.1155 44.925 45.2655 44.775C45.4155 44.625 45.4905 44.475 45.4905 44.325C45.4905 44.175 45.4155 44.025 45.2655 43.875C45.1155 43.725 44.9905 43.65 44.8905 43.65ZM17.5905 37.2H14.2905V35.4H17.5905V37.2ZM17.5905 34.05H14.2905V32.1H17.5905V34.05ZM14.2905 38.55H17.5905V40.5H14.2905V38.55ZM17.5905 29.1V30.9H14.2905V29.1H17.5905ZM14.2905 41.85H17.5905V43.65H14.2905V41.85ZM18.9405 29.1H22.0905V43.65H18.9405V29.1ZM23.4405 28.5V26.1H23.8905C24.3905 26.1 24.8405 25.95 25.2405 25.65C25.6405 25.35 25.8905 24.95 25.9905 24.45H27.9405C27.2405 24.95 26.8155 25.625 26.6655 26.475C26.5155 27.325 26.6405 28.15 27.0405 28.95C27.2405 29.25 27.4905 29.5 27.7905 29.7L31.2405 31.95L28.0905 33.9C27.2905 34.4 26.7905 35.075 26.5905 35.925C26.3905 36.775 26.5405 37.6 27.0405 38.4C27.2405 38.7 27.5405 39 27.9405 39.3L34.8405 43.65H23.4405V28.5ZM35.4405 40.2C35.8405 39.6 36.3905 39.3 37.0905 39.3C37.4905 39.3 37.8405 39.4 38.1405 39.6L38.4405 39.75C38.9405 40.05 39.2405 40.45 39.3405 40.95C39.4405 41.45 39.3155 41.975 38.9655 42.525C38.6155 43.075 38.0905 43.35 37.3905 43.35C36.9905 43.35 36.6405 43.25 36.3405 43.05L36.0405 42.9C35.6405 42.6 35.3655 42.175 35.2155 41.625C35.0655 41.075 35.1405 40.6 35.4405 40.2ZM35.8905 38.1C35.2905 38.4 34.7905 38.85 34.3905 39.45C33.9905 40.05 33.7905 40.75 33.7905 41.55L31.0905 39.75C31.2905 39.65 31.7405 39.4 32.4405 39L34.8405 37.5L35.8905 38.1ZM39.3405 32.4C39.2405 32.9 38.9405 33.3 38.4405 33.6L30.7905 38.4C30.4905 38.6 30.1905 38.7 29.8905 38.7C29.1905 38.7 28.6655 38.425 28.3155 37.875C27.9655 37.325 27.8405 36.775 27.9405 36.225C28.0405 35.675 28.3405 35.25 28.8405 34.95L36.3405 30.15C36.6405 29.95 36.9905 29.85 37.3905 29.85C38.0905 29.85 38.6155 30.125 38.9655 30.675C39.3155 31.225 39.4405 31.8 39.3405 32.4ZM36.1905 28.8C35.9905 28.9 35.7905 29 35.5905 29.1L32.4405 31.05L31.0905 30.15C31.2905 30.15 31.7405 29.9 32.4405 29.4L34.8405 27.9L36.1905 28.8ZM39.0405 21.3C39.3405 21.8 39.4405 22.3 39.3405 22.8C39.2405 23.3 38.9405 23.7 38.4405 24L30.9405 28.8C30.6405 29 30.2905 29.1 29.8905 29.1C29.4905 29.1 29.1405 29 28.8405 28.8C28.5405 28.6 28.3405 28.4 28.2405 28.2C27.9405 27.7 27.8405 27.2 27.9405 26.7C28.0405 26.2 28.3405 25.8 28.8405 25.5L36.3405 20.7C36.6405 20.5 36.9905 20.4 37.3905 20.4C38.0905 20.4 38.6405 20.7 39.0405 21.3ZM23.8905 18.75C24.0905 18.75 24.2655 18.825 24.4155 18.975C24.5655 19.125 24.6405 19.35 24.6405 19.65V24C24.6405 24.2 24.5655 24.375 24.4155 24.525C24.2655 24.675 24.0905 24.75 23.8905 24.75H23.4405V18.75H23.8905ZM9.79048 14.1V12.3H22.0905V14.1H9.79048ZM9.79048 29.1H12.9405V43.65H9.79048V29.1Z" fill="#470035"/>
</g>
<defs>
<clipPath id="clip0_218_500">
<rect width="45.02" height="45" fill="white" transform="matrix(1 0 0 -1 0.480469 45)"/>
</clipPath>
</defs>
</svg>
