<svg width="46" height="45" viewBox="0 0 46 45" fill="none" xmlns="http://www.w3.org/2000/svg">
<g clip-path="url(#clip0_218_488)">
<path d="M19.5405 18.15C18.2405 18.15 17.1655 18.6 16.3155 19.5C15.4655 20.4 15.0405 21.5 15.0405 22.8C15.0405 24.1 15.5405 25.35 16.5405 26.55C17.2405 27.35 18.5905 28.65 20.5905 30.45L22.3905 31.95C22.5905 32.05 22.7905 32.1 22.9905 32.1C23.1905 32.1 23.3905 32.05 23.5905 31.95L25.3905 30.45C27.3905 28.65 28.7405 27.35 29.4405 26.55C30.4405 25.35 30.9405 24.1 30.9405 22.8C30.9405 21.5 30.5155 20.4 29.6655 19.5C28.8155 18.6 27.7155 18.15 26.3655 18.15C25.0155 18.15 23.8905 18.8 22.9905 20.1C22.0905 18.8 20.9405 18.15 19.5405 18.15ZM23.8905 22.35C23.9905 21.95 24.1905 21.5 24.4905 21C24.9905 20.2 25.6405 19.8 26.4405 19.8C27.2405 19.8 27.8905 20.1 28.3905 20.7C28.8905 21.3 29.1405 22.05 29.1405 22.95C29.1405 23.85 28.6905 24.8 27.7905 25.8C27.2905 26.4 26.0905 27.5 24.1905 29.1L22.9905 30.15L21.7905 29.1C19.8905 27.5 18.6905 26.4 18.1905 25.8C17.2905 24.8 16.8405 23.85 16.8405 22.95C16.8405 22.05 17.0905 21.3 17.5905 20.7C18.0905 20.1 18.7405 19.8 19.5405 19.8C20.3405 19.8 20.9905 20.2 21.4905 21C21.7905 21.4 22.0155 21.825 22.1655 22.275C22.3155 22.725 22.5905 22.95 22.9905 22.95C23.3905 22.95 23.6905 22.75 23.8905 22.35ZM10.6905 9C10.6905 9.2 10.7655 9.4 10.9155 9.6C11.0655 9.8 11.2655 9.9 11.5155 9.9C11.7655 9.9 11.9905 9.8 12.1905 9.6C12.3905 9.4 12.4905 9.175 12.4905 8.925C12.4905 8.675 12.3905 8.475 12.1905 8.325C11.9905 8.175 11.7655 8.1 11.5155 8.1C11.2655 8.1 11.0655 8.175 10.9155 8.325C10.7655 8.475 10.6905 8.7 10.6905 9ZM39.7905 20.85C40.4905 21.35 41.2655 21.6 42.1155 21.6C42.9655 21.6 43.7405 21.25 44.4405 20.55C45.1405 19.85 45.4905 18.975 45.4905 17.925C45.4905 16.875 45.0405 16 44.1405 15.3L39.6405 11.85V0.899998C39.6405 0.599998 39.5655 0.375 39.4155 0.224998C39.2655 0.0749969 39.0405 0 38.7405 0H33.4905C33.2905 0 33.0905 0.0749969 32.8905 0.224998C32.6905 0.375 32.5905 0.599998 32.5905 0.899998V6.45L25.0905 0.75C24.4905 0.25 23.7905 0 22.9905 0C22.1905 0 21.4905 0.25 20.8905 0.75L14.1405 5.85C13.9405 6.05 13.8405 6.25 13.8405 6.45C13.8405 6.65 13.9155 6.85 14.0655 7.05C14.2155 7.25 14.3905 7.375 14.5905 7.425C14.7905 7.475 14.9905 7.4 15.1905 7.2L21.9405 2.1C22.2405 1.9 22.5905 1.8 22.9905 1.8C23.3905 1.8 23.7405 1.9 24.0405 2.1L43.0905 16.65C43.4905 17.05 43.6905 17.525 43.6905 18.075C43.6905 18.625 43.5155 19.05 43.1655 19.35C42.8155 19.65 42.4405 19.8 42.0405 19.8C41.6405 19.8 41.2405 19.7 40.8405 19.5L23.5905 6.15C23.1905 5.85 22.8405 5.85 22.5405 6.15L5.14048 19.5C4.74048 19.8 4.29048 19.9 3.79048 19.8C2.99048 19.8 2.49048 19.4 2.29048 18.6C2.09048 17.8 2.29048 17.15 2.89048 16.65L9.04048 12C9.14048 11.9 9.21548 11.725 9.26548 11.475C9.31548 11.225 9.26548 11 9.11548 10.8C8.96548 10.6 8.76548 10.5 8.51548 10.5C8.26548 10.5 8.04048 10.55 7.84048 10.65L1.84048 15.3C1.34048 15.7 0.965479 16.225 0.715479 16.875C0.465479 17.525 0.440479 18.2 0.640479 18.9C0.940479 20.5 1.94048 21.4 3.64048 21.6C4.54048 21.7 5.39048 21.45 6.19048 20.85H6.34048V32.85C5.34048 33.05 4.46548 33.55 3.71548 34.35C2.96548 35.15 2.49048 36.05 2.29048 37.05C1.79048 37.45 1.36548 37.975 1.01548 38.625C0.665479 39.275 0.490479 39.95 0.490479 40.65C0.490479 41.85 0.915479 42.875 1.76548 43.725C2.61548 44.575 3.64048 45 4.84048 45H41.1405C42.3405 45 43.3655 44.575 44.2155 43.725C45.0655 42.875 45.4905 41.85 45.4905 40.65C45.4905 39.95 45.3155 39.275 44.9655 38.625C44.6155 37.975 44.1905 37.45 43.6905 37.05C43.4905 36.05 43.0155 35.15 42.2655 34.35C41.5155 33.55 40.6405 33.05 39.6405 32.85V20.85H39.7905ZM34.3905 1.8H37.9905V10.5L34.3905 7.8V1.8ZM14.5905 43.2H4.84048C4.14048 43.2 3.54048 42.95 3.04048 42.45C2.54048 41.95 2.29048 41.35 2.29048 40.65C2.29048 40.15 2.41548 39.7 2.66548 39.3C2.91548 38.9 3.19048 38.6 3.49048 38.4C3.79048 38.2 3.99048 37.95 4.09048 37.65C4.19048 36.75 4.56548 36 5.21548 35.4C5.86548 34.8 6.64048 34.5 7.54048 34.5C8.74048 34.5 9.69048 35 10.3905 36C10.5905 36.3 10.8905 36.4 11.2905 36.3L11.8905 36.15C12.5905 36.15 13.2155 36.425 13.7655 36.975C14.3155 37.525 14.5905 38.15 14.5905 38.85C14.4905 39.35 14.6405 39.675 15.0405 39.825C15.4405 39.975 15.7405 40.2 15.9405 40.5C16.1405 40.8 16.2405 41.15 16.2405 41.55C16.2405 41.95 16.0905 42.325 15.7905 42.675C15.4905 43.025 15.0905 43.2 14.5905 43.2ZM29.7405 38.4C29.1405 38.7 28.6905 39.15 28.3905 39.75H17.5905C17.2905 39.15 16.8405 38.7 16.2405 38.4V37.95H29.7405V38.4ZM17.5905 43.2C17.8905 42.7 18.0405 42.15 18.0405 41.55H27.9405C27.9405 42.15 28.0905 42.7 28.3905 43.2H17.5905ZM41.8905 37.65C41.9905 37.95 42.1905 38.2 42.4905 38.4C42.7905 38.6 43.0655 38.9 43.3155 39.3C43.5655 39.7 43.6905 40.15 43.6905 40.65C43.6905 41.35 43.4405 41.95 42.9405 42.45C42.4405 42.95 41.8405 43.2 41.1405 43.2H31.3905C30.8905 43.2 30.4905 43.025 30.1905 42.675C29.8905 42.325 29.7405 41.95 29.7405 41.55C29.7405 41.15 29.8405 40.8 30.0405 40.5C30.2405 40.2 30.5405 39.975 30.9405 39.825C31.3405 39.675 31.4905 39.35 31.3905 38.85C31.3905 38.15 31.6655 37.525 32.2155 36.975C32.7655 36.425 33.3905 36.15 34.0905 36.15L34.6905 36.3C35.0905 36.4 35.3905 36.3 35.5905 36C36.2905 35 37.2405 34.5 38.4405 34.5C39.3405 34.5 40.1155 34.8 40.7655 35.4C41.4155 36 41.7905 36.75 41.8905 37.65ZM37.9905 32.7C36.5905 32.9 35.4405 33.5 34.5405 34.5H34.0905C33.3905 34.5 32.7405 34.65 32.1405 34.95C31.5405 35.25 30.9905 35.65 30.4905 36.15H15.4905C14.9905 35.65 14.4405 35.25 13.8405 34.95C13.2405 34.65 12.5905 34.5 11.8905 34.5H11.4405C10.5405 33.5 9.39048 32.9 7.99048 32.7V19.5L22.9905 7.95L37.9905 19.5V32.7Z" fill="#470035"/>
</g>
<defs>
<clipPath id="clip0_218_488">
<rect width="45.02" height="45" fill="white" transform="matrix(1 0 0 -1 0.480469 45)"/>
</clipPath>
</defs>
</svg>
