<svg
  id="Layer_1"
  enable-background="new 0 0 512 512"
  height="512"
  viewBox="0 0 512 512"
  width="512"
  xmlns="http://www.w3.org/2000/svg"
>
  <g id="XMLID_1_">
    <g id="XMLID_3226_">
      <g id="XMLID_583_">
        <path
          id="XMLID_3127_"
          d="m512 437h-512v-362h512zm-502-10h492v-342h-492z"
          fill="#470035"
        />
      </g>
      <g id="XMLID_623_">
        <path
          id="XMLID_3124_"
          d="m255 310c-29.8 0-54-24.2-54-54s24.2-54 54-54 54 24.2 54 54-24.2 54-54 54zm0-98c-24.3 0-44 19.7-44 44s19.7 44 44 44 44-19.7 44-44-19.7-44-44-44z"
          fill="#470035"
        />
      </g>
      <g id="XMLID_624_">
        <path
          id="XMLID_3123_"
          d="m251 80h10v352h-10z"
          fill="#470035"
        />
      </g>
      <g id="XMLID_625_">
        <path
          id="XMLID_3120_"
          d="m87.3 326h-87.3v-140h87.3c38.6 0 70 31.4 70 70s-31.4 70-70 70zm-77.3-10h77.3c33.1 0 60-26.9 60-60s-26.9-60-60-60h-77.3z"
          fill="#470035"
        />
      </g>
      <g id="XMLID_627_">
        <path
          id="XMLID_3117_"
          d="m40 402.7h-40v-293.4h40c80.9 0 146.7 65.8 146.7 146.7s-65.8 146.7-146.7 146.7zm-30-10h30c75.4 0 136.7-61.3 136.7-136.7s-61.3-136.7-136.7-136.7h-30z"
          fill="#470035"
        />
      </g>
      <g id="XMLID_626_">
        <path
          id="XMLID_3116_"
          d="m82 191h10v130h-10z"
          fill="#470035"
        />
      </g>
      <g id="XMLID_12_">
        <path
          id="XMLID_3113_"
          d="m512 326h-87.7c-38.6 0-70-31.4-70-70s31.4-70 70-70h87.7zm-87.7-130c-33.1 0-60 26.9-60 60s26.9 60 60 60h77.7v-120z"
          fill="#470035"
        />
      </g>
      <g id="XMLID_30_">
        <path
          id="XMLID_3109_"
          d="m512 402.7h-40.3c-80.9 0-146.7-65.8-146.7-146.7s65.8-146.7 146.7-146.7h40.3zm-40.3-283.4c-75.4 0-136.7 61.3-136.7 136.7s61.3 136.7 136.7 136.7h30.3v-273.4z"
          fill="#470035"
        />
      </g>
      <g id="XMLID_32_">
        <path
          id="XMLID_3108_"
          d="m420 191h10v130h-10z"
          fill="#470035"
        />
      </g>
    </g>
  </g>
</svg>
