<svg height="512" viewBox="0 0 128 128" width="512" xmlns="http://www.w3.org/2000/svg"><path d="m114.715 120.653-16.981-84a1.75 1.75 0 0 0 -1.715-1.4h-18.269v-28.253a1.749 1.749 0 0 0 -1.75-1.75h-24a1.75 1.75 0 0 0 -1.75 1.75v28.25h-18.27a1.75 1.75 0 0 0 -1.715 1.4l-16.98 84a1.749 1.749 0 0 0 1.715 2.1h98a1.75 1.75 0 0 0 1.715-2.1zm-52.465-12.903v11.5h-8.5v-11.5zm-8.5-3.5v-11.5h8.5v11.5zm12 3.5h8.5v11.5h-8.5zm0-3.5v-11.5h8.5v11.5zm10.25-15h-24a1.75 1.75 0 0 0 -1.75 1.75v13.25h-30.079l10.208-50.5h67.241l10.209 50.5h-30.079v-13.25a1.749 1.749 0 0 0 -1.75-1.75zm-1.75-54h-8.5v-26.5h8.5zm-20.5-26.5h8.5v26.5h-8.5zm-20.338 30h61.176l2.325 11.5h-65.826zm-13.948 69h30.786v11.5h-33.111zm58.286 11.5v-11.5h30.787l2.324 11.5z"/></svg>