<svg width="100" height="100" viewBox="0 0 100 100" fill="none" xmlns="http://www.w3.org/2000/svg">
<path d="M0 50C0 22.3858 22.3858 0 50 0C77.6142 0 100 22.3858 100 50C100 77.6142 77.6142 100 50 100C22.3858 100 0 77.6142 0 50Z" fill="#CFB893" fill-opacity="0.3"/>
<g clip-path="url(#clip0_218_499)">
<path d="M46.3905 48.6C46.3905 47.6 46.0405 46.75 45.3405 46.05C44.6405 45.35 43.8155 45 42.8655 45C41.9155 45 41.0905 45.35 40.3905 46.05C39.6905 46.75 39.3405 47.6 39.3405 48.6C39.3405 49.6 39.6905 50.45 40.3905 51.15C41.0905 51.85 41.9155 52.2 42.8655 52.2C43.8155 52.2 44.6405 51.85 45.3405 51.15C46.0405 50.45 46.3905 49.6 46.3905 48.6ZM40.6905 48.6C40.6905 48 40.9155 47.475 41.3655 47.025C41.8155 46.575 42.3405 46.35 42.9405 46.35C43.5405 46.35 44.0655 46.575 44.5155 47.025C44.9655 47.475 45.1905 48 45.1905 48.6C45.1905 49.2 44.9655 49.725 44.5155 50.175C44.0655 50.625 43.5405 50.85 42.9405 50.85C42.3405 50.85 41.8155 50.625 41.3655 50.175C40.9155 49.725 40.6905 49.2 40.6905 48.6ZM43.8405 36.6C44.0405 36.6 44.1905 36.525 44.2905 36.375C44.3905 36.225 44.4405 36.05 44.4405 35.85C44.4405 35.65 44.3905 35.5 44.2905 35.4C44.1905 35.3 44.0405 35.25 43.8405 35.25H41.8905C41.7905 35.25 41.6655 35.3 41.5155 35.4C41.3655 35.5 41.2905 35.65 41.2905 35.85C41.2905 36.05 41.3655 36.225 41.5155 36.375C41.6655 36.525 41.7905 36.6 41.8905 36.6H43.8405ZM71.8905 70.65H66.7905L67.2405 70.2C67.7405 69.4 67.8655 68.55 67.6155 67.65C67.3655 66.75 66.8405 66.05 66.0405 65.55L63.0405 63.6L66.1905 61.65C66.9905 61.15 67.4905 60.475 67.6905 59.625C67.8905 58.775 67.7405 57.95 67.2405 57.15C67.0405 56.85 66.7905 56.55 66.4905 56.25L63.0405 54.15L66.1905 52.2C66.9905 51.7 67.4905 51 67.6905 50.1C67.8905 49.2 67.7405 48.4 67.2405 47.7C66.5405 46.6 65.5905 46.05 64.3905 46.05H58.9905C58.7905 46.05 58.6155 46.125 58.4655 46.275C58.3155 46.425 58.2405 46.575 58.2405 46.725C58.2405 46.875 58.3155 47.025 58.4655 47.175C58.6155 47.325 58.7905 47.4 58.9905 47.4H61.3905L57.0405 50.1H52.9905V47.4H56.2905C56.4905 47.4 56.6405 47.325 56.7405 47.175C56.8405 47.025 56.8905 46.875 56.8905 46.725C56.8905 46.575 56.8405 46.425 56.7405 46.275C56.6405 46.125 56.4905 46.05 56.2905 46.05H52.9905C52.8905 45.65 52.6405 45.275 52.2405 44.925C51.8405 44.575 51.3905 44.4 50.8905 44.4H50.4405V39.3H52.8405C53.1405 39.3 53.3405 39.15 53.4405 38.85C53.5405 38.55 53.4905 38.3 53.2905 38.1L43.5405 30.15V27.6C43.5405 27.5 43.4905 27.375 43.3905 27.225C43.2905 27.075 43.1405 27 42.9405 27C42.7405 27 42.5655 27.075 42.4155 27.225C42.2655 27.375 42.1905 27.5 42.1905 27.6V30.15L38.2905 33.45C38.0905 33.55 37.9905 33.7 37.9905 33.9C37.9905 34.1 38.0405 34.25 38.1405 34.35C38.2405 34.45 38.3905 34.525 38.5905 34.575C38.7905 34.625 38.9405 34.6 39.0405 34.5L42.9405 31.35L51.0405 37.95H34.8405L37.0905 36.15C37.1905 36.05 37.2405 35.9 37.2405 35.7C37.2405 35.5 37.1905 35.325 37.0905 35.175C36.9905 35.025 36.8405 34.95 36.6405 34.95C36.4405 34.95 36.2905 35 36.1905 35.1L32.5905 38.1C32.2905 38.3 32.1905 38.55 32.2905 38.85C32.3905 39.15 32.5905 39.3 32.8905 39.3H35.4405V50.55C35.4405 50.75 35.4905 50.925 35.5905 51.075C35.6905 51.225 35.8405 51.3 36.0405 51.3C36.2405 51.3 36.4155 51.225 36.5655 51.075C36.7155 50.925 36.7905 50.75 36.7905 50.55V42.45H49.0905V54.75H36.7905V53.25C36.7905 53.05 36.7155 52.9 36.5655 52.8C36.4155 52.7 36.2405 52.65 36.0405 52.65C35.8405 52.65 35.6905 52.7 35.5905 52.8C35.4905 52.9 35.4405 53.05 35.4405 53.25V70.65H28.0905C27.9905 70.65 27.8655 70.725 27.7155 70.875C27.5655 71.025 27.4905 71.175 27.4905 71.325C27.4905 71.475 27.5655 71.625 27.7155 71.775C27.8655 71.925 27.9905 72 28.0905 72H71.8905C71.9905 72 72.1155 71.925 72.2655 71.775C72.4155 71.625 72.4905 71.475 72.4905 71.325C72.4905 71.175 72.4155 71.025 72.2655 70.875C72.1155 70.725 71.9905 70.65 71.8905 70.65ZM44.5905 64.2H41.2905V62.4H44.5905V64.2ZM44.5905 61.05H41.2905V59.1H44.5905V61.05ZM41.2905 65.55H44.5905V67.5H41.2905V65.55ZM44.5905 56.1V57.9H41.2905V56.1H44.5905ZM41.2905 68.85H44.5905V70.65H41.2905V68.85ZM45.9405 56.1H49.0905V70.65H45.9405V56.1ZM50.4405 55.5V53.1H50.8905C51.3905 53.1 51.8405 52.95 52.2405 52.65C52.6405 52.35 52.8905 51.95 52.9905 51.45H54.9405C54.2405 51.95 53.8155 52.625 53.6655 53.475C53.5155 54.325 53.6405 55.15 54.0405 55.95C54.2405 56.25 54.4905 56.5 54.7905 56.7L58.2405 58.95L55.0905 60.9C54.2905 61.4 53.7905 62.075 53.5905 62.925C53.3905 63.775 53.5405 64.6 54.0405 65.4C54.2405 65.7 54.5405 66 54.9405 66.3L61.8405 70.65H50.4405V55.5ZM62.4405 67.2C62.8405 66.6 63.3905 66.3 64.0905 66.3C64.4905 66.3 64.8405 66.4 65.1405 66.6L65.4405 66.75C65.9405 67.05 66.2405 67.45 66.3405 67.95C66.4405 68.45 66.3155 68.975 65.9655 69.525C65.6155 70.075 65.0905 70.35 64.3905 70.35C63.9905 70.35 63.6405 70.25 63.3405 70.05L63.0405 69.9C62.6405 69.6 62.3655 69.175 62.2155 68.625C62.0655 68.075 62.1405 67.6 62.4405 67.2ZM62.8905 65.1C62.2905 65.4 61.7905 65.85 61.3905 66.45C60.9905 67.05 60.7905 67.75 60.7905 68.55L58.0905 66.75C58.2905 66.65 58.7405 66.4 59.4405 66L61.8405 64.5L62.8905 65.1ZM66.3405 59.4C66.2405 59.9 65.9405 60.3 65.4405 60.6L57.7905 65.4C57.4905 65.6 57.1905 65.7 56.8905 65.7C56.1905 65.7 55.6655 65.425 55.3155 64.875C54.9655 64.325 54.8405 63.775 54.9405 63.225C55.0405 62.675 55.3405 62.25 55.8405 61.95L63.3405 57.15C63.6405 56.95 63.9905 56.85 64.3905 56.85C65.0905 56.85 65.6155 57.125 65.9655 57.675C66.3155 58.225 66.4405 58.8 66.3405 59.4ZM63.1905 55.8C62.9905 55.9 62.7905 56 62.5905 56.1L59.4405 58.05L58.0905 57.15C58.2905 57.15 58.7405 56.9 59.4405 56.4L61.8405 54.9L63.1905 55.8ZM66.0405 48.3C66.3405 48.8 66.4405 49.3 66.3405 49.8C66.2405 50.3 65.9405 50.7 65.4405 51L57.9405 55.8C57.6405 56 57.2905 56.1 56.8905 56.1C56.4905 56.1 56.1405 56 55.8405 55.8C55.5405 55.6 55.3405 55.4 55.2405 55.2C54.9405 54.7 54.8405 54.2 54.9405 53.7C55.0405 53.2 55.3405 52.8 55.8405 52.5L63.3405 47.7C63.6405 47.5 63.9905 47.4 64.3905 47.4C65.0905 47.4 65.6405 47.7 66.0405 48.3ZM50.8905 45.75C51.0905 45.75 51.2655 45.825 51.4155 45.975C51.5655 46.125 51.6405 46.35 51.6405 46.65V51C51.6405 51.2 51.5655 51.375 51.4155 51.525C51.2655 51.675 51.0905 51.75 50.8905 51.75H50.4405V45.75H50.8905ZM36.7905 41.1V39.3H49.0905V41.1H36.7905ZM36.7905 56.1H39.9405V70.65H36.7905V56.1Z" fill="#470035"/>
</g>
<defs>
<clipPath id="clip0_218_499">
<rect width="45.02" height="45" fill="white" transform="matrix(1 0 0 -1 27.4805 72)"/>
</clipPath>
</defs>
</svg>
