<svg width="100" height="100" viewBox="0 0 100 100" fill="none" xmlns="http://www.w3.org/2000/svg">
<path d="M0 50C0 22.3858 22.3858 0 50 0C77.6142 0 100 22.3858 100 50C100 77.6142 77.6142 100 50 100C22.3858 100 0 77.6142 0 50Z" fill="#CFB893" fill-opacity="0.3"/>
<g clip-path="url(#clip0_218_475)">
<path d="M64.9905 54V46.5C64.9905 45.2 63.1905 44.2 59.5905 43.5C56.7905 43 53.5905 42.75 49.9905 42.75C46.3905 42.75 43.1905 43 40.3905 43.5C36.7905 44.2 34.9905 45.2 34.9905 46.5V54C32.8905 54.2 31.1155 55.1 29.6655 56.7C28.2155 58.3 27.4905 60.15 27.4905 62.25C27.4905 63.05 27.7905 63.75 28.3905 64.35C28.9905 64.95 29.6905 65.25 30.4905 65.25V69.75C30.4905 70.35 30.7155 70.875 31.1655 71.325C31.6155 71.775 32.1405 72 32.7405 72H34.2405C34.8405 72 35.3655 71.8 35.8155 71.4C36.2655 71 36.4905 70.5 36.4905 69.9C36.8905 69.5 38.2905 69.15 40.6905 68.85C43.2905 68.45 46.3905 68.25 49.9905 68.25C53.5905 68.25 56.6905 68.45 59.2905 68.85C61.6905 69.15 63.0905 69.5 63.4905 69.9C63.4905 70.5 63.7155 71 64.1655 71.4C64.6155 71.8 65.1405 72 65.7405 72H67.2405C67.8405 72 68.3655 71.775 68.8155 71.325C69.2655 70.875 69.4905 70.35 69.4905 69.75V65.25C70.2905 65.25 70.9905 64.95 71.5905 64.35C72.1905 63.75 72.4905 63.05 72.4905 62.25C72.4905 60.15 71.7655 58.3 70.3155 56.7C68.8655 55.1 67.0905 54.2 64.9905 54ZM49.9905 44.25C52.5905 44.25 54.9905 44.4 57.1905 44.7C58.9905 44.9 60.4655 45.175 61.6155 45.525C62.7655 45.875 63.3905 46.2 63.4905 46.5V54H61.8405C61.9405 53.8 61.9905 53.55 61.9905 53.25V49.5C61.9905 48.9 61.7655 48.375 61.3155 47.925C60.8655 47.475 60.3405 47.25 59.7405 47.25H52.9905C52.3905 47.25 51.8655 47.475 51.4155 47.925C50.9655 48.375 50.7405 48.9 50.7405 49.5V53.25C50.7405 53.55 50.7905 53.8 50.8905 54H49.0905C49.1905 53.8 49.2405 53.55 49.2405 53.25V49.5C49.2405 48.9 49.0155 48.375 48.5655 47.925C48.1155 47.475 47.5905 47.25 46.9905 47.25H40.2405C39.6405 47.25 39.1155 47.475 38.6655 47.925C38.2155 48.375 37.9905 48.9 37.9905 49.5V53.25C37.9905 53.55 38.0405 53.8 38.1405 54H36.4905V46.5C36.5905 46.2 37.2155 45.875 38.3655 45.525C39.5155 45.175 40.9905 44.9 42.7905 44.7C44.9905 44.4 47.3905 44.25 49.9905 44.25ZM52.2405 53.25V49.5C52.2405 49.3 52.3155 49.125 52.4655 48.975C52.6155 48.825 52.7905 48.75 52.9905 48.75H59.7405C59.9405 48.75 60.1155 48.825 60.2655 48.975C60.4155 49.125 60.4905 49.3 60.4905 49.5V53.25C60.4905 53.45 60.4155 53.625 60.2655 53.775C60.1155 53.925 59.9405 54 59.7405 54H52.9905C52.7905 54 52.6155 53.925 52.4655 53.775C52.3155 53.625 52.2405 53.45 52.2405 53.25ZM39.4905 53.25V49.5C39.4905 49.3 39.5655 49.125 39.7155 48.975C39.8655 48.825 40.0405 48.75 40.2405 48.75H46.9905C47.1905 48.75 47.3655 48.825 47.5155 48.975C47.6655 49.125 47.7405 49.3 47.7405 49.5V53.25C47.7405 53.45 47.6655 53.625 47.5155 53.775C47.3655 53.925 47.1905 54 46.9905 54H40.2405C40.0405 54 39.8655 53.925 39.7155 53.775C39.5655 53.625 39.4905 53.45 39.4905 53.25ZM34.2405 70.5H32.7405C32.5405 70.5 32.3655 70.425 32.2155 70.275C32.0655 70.125 31.9905 69.95 31.9905 69.75V65.25H34.9905V69.75C34.9905 69.95 34.9155 70.125 34.7655 70.275C34.6155 70.425 34.4405 70.5 34.2405 70.5ZM36.4905 68.25V65.25H63.4905V68.25C62.0905 67.65 59.6405 67.2 56.1405 66.9C54.1405 66.8 52.0905 66.75 49.9905 66.75C47.8905 66.75 45.8405 66.8 43.8405 66.9C40.3405 67.2 37.8905 67.65 36.4905 68.25ZM67.9905 69.75C67.9905 69.95 67.9155 70.125 67.7655 70.275C67.6155 70.425 67.4405 70.5 67.2405 70.5H65.7405C65.5405 70.5 65.3655 70.425 65.2155 70.275C65.0655 70.125 64.9905 69.95 64.9905 69.75V65.25H67.9905V69.75ZM69.4905 63.75H30.4905C30.0905 63.75 29.7405 63.6 29.4405 63.3C29.1405 63 28.9905 62.65 28.9905 62.25C28.9905 60.35 29.6405 58.75 30.9405 57.45C32.2405 56.15 33.8405 55.5 35.7405 55.5H64.2405C66.1405 55.5 67.7405 56.15 69.0405 57.45C70.3405 58.75 70.9905 60.35 70.9905 62.25C70.9905 62.65 70.8405 63 70.5405 63.3C70.2405 63.6 69.8905 63.75 69.4905 63.75ZM35.7405 57C34.4405 57 33.3155 57.425 32.3655 58.275C31.4155 59.125 30.8405 60.15 30.6405 61.35C30.5405 61.55 30.5655 61.75 30.7155 61.95C30.8655 62.15 31.0405 62.25 31.2405 62.25C31.4405 62.25 31.6155 62.2 31.7655 62.1C31.9155 62 31.9905 61.85 31.9905 61.65C32.1905 60.75 32.6405 60 33.3405 59.4C34.0405 58.8 34.8405 58.5 35.7405 58.5C35.9405 58.5 36.1155 58.425 36.2655 58.275C36.4155 58.125 36.4905 57.95 36.4905 57.75C36.4905 57.55 36.4155 57.375 36.2655 57.225C36.1155 57.075 35.9405 57 35.7405 57ZM37.9905 57.75C37.9905 57.95 38.0655 58.125 38.2155 58.275C38.3655 58.425 38.5405 58.5 38.7405 58.5C38.9405 58.5 39.1155 58.425 39.2655 58.275C39.4155 58.125 39.4905 57.95 39.4905 57.75C39.4905 57.55 39.4155 57.375 39.2655 57.225C39.1155 57.075 38.9405 57 38.7405 57C38.5405 57 38.3655 57.075 38.2155 57.225C38.0655 57.375 37.9905 57.55 37.9905 57.75ZM58.9905 40.5C59.3905 40.5 59.7405 40.35 60.0405 40.05C60.3405 39.75 60.4905 39.4 60.4905 39V29.4C60.4905 29 60.3905 28.675 60.1905 28.425C59.9905 28.175 59.7405 28 59.4405 27.9C59.1405 27.8 58.8405 27.8 58.5405 27.9C58.2405 28 57.9905 28.2 57.7905 28.5L55.9905 30.9L54.3405 27.75C54.0405 27.25 53.5905 27 52.9905 27C52.3905 27 51.9405 27.25 51.6405 27.75L49.9905 30.75L48.3405 27.75C48.0405 27.25 47.5905 27 46.9905 27C46.3905 27 45.9405 27.25 45.6405 27.75L43.9905 30.9L42.1905 28.5C41.9905 28.2 41.7405 28 41.4405 27.9C41.1405 27.8 40.8405 27.8 40.5405 27.9C40.2405 28 39.9905 28.175 39.7905 28.425C39.5905 28.675 39.4905 29 39.4905 29.4V39C39.4905 39.4 39.6405 39.75 39.9405 40.05C40.2405 40.35 40.5905 40.5 40.9905 40.5H58.9905ZM40.9905 29.25L43.3905 32.7C43.4905 32.9 43.6905 33 43.9905 33C44.2905 33 44.4905 32.85 44.5905 32.55L46.9905 28.5L49.3905 32.55C49.4905 32.85 49.6905 33 49.9905 33C50.2905 33 50.4905 32.85 50.5905 32.55L52.9905 28.5L55.3905 32.55C55.4905 32.85 55.6655 33 55.9155 33C56.1655 33 56.3905 32.9 56.5905 32.7L58.9905 29.4V39H40.9905V29.25ZM46.9905 35.25C46.9905 35.45 47.0655 35.625 47.2155 35.775C47.3655 35.925 47.5405 36 47.7405 36C47.9405 36 48.1155 35.925 48.2655 35.775C48.4155 35.625 48.4905 35.45 48.4905 35.25C48.4905 35.05 48.4155 34.875 48.2655 34.725C48.1155 34.575 47.9405 34.5 47.7405 34.5C47.5405 34.5 47.3655 34.575 47.2155 34.725C47.0655 34.875 46.9905 35.05 46.9905 35.25ZM42.4905 35.25C42.4905 35.45 42.5655 35.625 42.7155 35.775C42.8655 35.925 43.0405 36 43.2405 36C43.4405 36 43.6155 35.925 43.7655 35.775C43.9155 35.625 43.9905 35.45 43.9905 35.25C43.9905 35.05 43.9155 34.875 43.7655 34.725C43.6155 34.575 43.4405 34.5 43.2405 34.5C43.0405 34.5 42.8655 34.575 42.7155 34.725C42.5655 34.875 42.4905 35.05 42.4905 35.25ZM55.9905 35.25C55.9905 35.45 56.0655 35.625 56.2155 35.775C56.3655 35.925 56.5405 36 56.7405 36C56.9405 36 57.1155 35.925 57.2655 35.775C57.4155 35.625 57.4905 35.45 57.4905 35.25C57.4905 35.05 57.4155 34.875 57.2655 34.725C57.1155 34.575 56.9405 34.5 56.7405 34.5C56.5405 34.5 56.3655 34.575 56.2155 34.725C56.0655 34.875 55.9905 35.05 55.9905 35.25ZM51.4905 35.25C51.4905 35.45 51.5655 35.625 51.7155 35.775C51.8655 35.925 52.0405 36 52.2405 36C52.4405 36 52.6155 35.925 52.7655 35.775C52.9155 35.625 52.9905 35.45 52.9905 35.25C52.9905 35.05 52.9155 34.875 52.7655 34.725C52.6155 34.575 52.4405 34.5 52.2405 34.5C52.0405 34.5 51.8655 34.575 51.7155 34.725C51.5655 34.875 51.4905 35.05 51.4905 35.25Z" fill="#470035"/>
</g>
<defs>
<clipPath id="clip0_218_475">
<rect width="45.02" height="45" fill="white" transform="matrix(1 0 0 -1 27.4805 72)"/>
</clipPath>
</defs>
</svg>
