<svg width="100" height="100" viewBox="0 0 100 100" fill="none" xmlns="http://www.w3.org/2000/svg">
<path d="M0 50C0 22.3858 22.3858 0 50 0C77.6142 0 100 22.3858 100 50C100 77.6142 77.6142 100 50 100C22.3858 100 0 77.6142 0 50Z" fill="#CFB893" fill-opacity="0.3"/>
<g clip-path="url(#clip0_218_463)">
<path d="M49.9905 27H40.2405C40.0405 27 39.8655 27.075 39.7155 27.225C39.5655 27.375 39.4905 27.55 39.4905 27.75V33H28.2405C28.0405 33 27.8655 33.075 27.7155 33.225C27.5655 33.375 27.4905 33.55 27.4905 33.75V71.25C27.4905 71.45 27.5655 71.625 27.7155 71.775C27.8655 71.925 28.0405 72 28.2405 72H49.9905C50.1905 72 50.3655 71.925 50.5155 71.775C50.6655 71.625 50.7405 71.45 50.7405 71.25V27.75C50.7405 27.55 50.6655 27.375 50.5155 27.225C50.3655 27.075 50.1905 27 49.9905 27ZM49.2405 66H40.9905V64.5H49.2405V66ZM28.9905 38.25H39.4905V60.75H28.9905V38.25ZM49.2405 35.25H40.9905V33H49.2405V35.25ZM28.9905 62.25H39.4905V64.5H28.9905V62.25ZM40.9905 63V36.75H49.2405V63H40.9905ZM49.2405 28.5V31.5H40.9905V28.5H49.2405ZM39.4905 34.5V36.75H28.9905V34.5H39.4905ZM28.9905 66H39.4905V70.5H28.9905V66ZM40.9905 70.5V67.5H49.2405V70.5H40.9905ZM72.4905 68.1L63.4905 33.6C63.3905 33.4 63.2655 33.25 63.1155 33.15C62.9655 33.05 62.7905 33 62.5905 33L51.3405 36C51.1405 36.1 50.9905 36.225 50.8905 36.375C50.7905 36.525 50.7405 36.7 50.7405 36.9L59.7405 71.4C59.8405 71.6 59.9655 71.75 60.1155 71.85C60.2655 71.95 60.4405 72 60.6405 72L71.8905 69C72.0905 68.9 72.2405 68.775 72.3405 68.625C72.4405 68.475 72.4905 68.3 72.4905 68.1ZM53.5905 41.85L63.3405 39.3L63.7905 40.65L53.8905 43.2L53.5905 41.85ZM64.0905 42L68.4405 58.8L58.6905 61.35L54.3405 44.7L64.0905 42ZM68.8905 60.15L69.6405 63.15L59.8905 65.7L59.1405 62.85L68.8905 60.15ZM62.1405 34.65L63.0405 37.8L53.2905 40.35L52.3905 37.35L62.1405 34.65ZM61.0905 70.35L60.1905 67.2L69.9405 64.65L70.8405 67.65L61.0905 70.35ZM37.2405 40.5H31.2405C31.0405 40.5 30.8655 40.575 30.7155 40.725C30.5655 40.875 30.4905 41.05 30.4905 41.25V47.25C30.4905 47.45 30.5655 47.625 30.7155 47.775C30.8655 47.925 31.0405 48 31.2405 48H37.2405C37.4405 48 37.6155 47.925 37.7655 47.775C37.9155 47.625 37.9905 47.45 37.9905 47.25V41.25C37.9905 41.05 37.9155 40.875 37.7655 40.725C37.6155 40.575 37.4405 40.5 37.2405 40.5ZM36.4905 46.5H31.9905V42H36.4905V46.5Z" fill="#470035"/>
</g>
<defs>
<clipPath id="clip0_218_463">
<rect width="45.02" height="45" fill="white" transform="matrix(1 0 0 -1 27.4805 72)"/>
</clipPath>
</defs>
</svg>
