<svg width="100" height="100" viewBox="0 0 100 100" fill="none" xmlns="http://www.w3.org/2000/svg">
<path d="M0 50C0 22.3858 22.3858 0 50 0C77.6142 0 100 22.3858 100 50C100 77.6142 77.6142 100 50 100C22.3858 100 0 77.6142 0 50Z" fill="#CFB893" fill-opacity="0.3"/>
<g clip-path="url(#clip0_218_451)">
<path d="M72.4905 52.0499C72.2905 50.95 71.7905 49.975 70.9905 49.125C70.1905 48.275 69.1905 47.7999 67.9905 47.7V46.35C67.9905 44.4499 67.3655 42.8249 66.1155 41.475C64.8655 40.125 63.3655 39.4499 61.6155 39.4499C59.8655 39.4499 58.3905 40.1 57.1905 41.4C55.9905 42.6999 55.3405 44.25 55.2405 46.0499V60.9C55.2405 63.2 54.4655 65.2 52.9155 66.9C51.3655 68.6 49.5155 69.45 47.3655 69.45C45.2155 69.45 43.3655 68.6 41.8155 66.9C40.2655 65.2 39.4905 63.2 39.4905 60.9V59.55C40.0905 59.55 40.6155 59.3 41.0655 58.8C41.5155 58.3 41.7405 57.55 41.7405 56.55V54.75C44.1405 54.0499 46.1155 52.775 47.6655 50.9249C49.2155 49.075 49.9905 47 49.9905 44.6999V43.0499H48.4905V33.2999C48.4905 32.3999 48.1905 31.5999 47.5905 30.8999C46.9905 30.2 46.2405 29.7999 45.3405 29.7C45.1405 29.0999 44.7655 28.6499 44.2155 28.3499C43.6655 28.0499 43.1155 28 42.5655 28.2C42.0155 28.3999 41.5905 28.7749 41.2905 29.325C40.9905 29.875 40.9405 30.45 41.1405 31.0499C41.3405 31.6499 41.7155 32.075 42.2655 32.325C42.8155 32.575 43.3905 32.5999 43.9905 32.3999C44.5905 32.2 45.0405 31.7999 45.3405 31.2C45.8405 31.2999 46.2405 31.5499 46.5405 31.95C46.8405 32.3499 46.9905 32.7999 46.9905 33.2999V43.0499H45.4905V44.6999C45.4905 46 45.0905 47.15 44.2905 48.15C43.4905 49.15 42.4155 49.85 41.0655 50.25C39.7155 50.65 38.3905 50.65 37.0905 50.25C35.7905 49.85 34.7405 49.15 33.9405 48.15C33.1405 47.15 32.7405 46 32.7405 44.6999V43.0499H30.4905V33.2999C30.4905 32.7999 30.6405 32.3499 30.9405 31.95C31.2405 31.5499 31.6405 31.2999 32.1405 31.2C32.3405 31.7999 32.7405 32.2249 33.3405 32.4749C33.9405 32.7249 34.5155 32.7249 35.0655 32.4749C35.6155 32.2249 36.0155 31.825 36.2655 31.2749C36.5155 30.7249 36.5405 30.1499 36.3405 29.5499C36.1405 28.95 35.7405 28.5249 35.1405 28.2749C34.5405 28.0249 33.9405 28.0249 33.3405 28.2749C32.7405 28.5249 32.3405 29 32.1405 29.7C31.2405 29.7999 30.4905 30.2 29.8905 30.8999C29.2905 31.5999 28.9905 32.3999 28.9905 33.2999V43.0499H27.4905V44.6999C27.4905 47 28.2655 49.075 29.8155 50.9249C31.3655 52.775 33.3405 54.0499 35.7405 54.75V56.55C35.7405 57.55 35.9655 58.3 36.4155 58.8C36.8655 59.3 37.3905 59.55 37.9905 59.55V60.9C37.9905 62.7 38.4155 64.375 39.2655 65.925C40.1155 67.475 41.2655 68.7 42.7155 69.6C44.1655 70.5 45.7155 70.95 47.3655 70.95C49.0155 70.95 50.5655 70.5 52.0155 69.6C53.4655 68.7 54.6155 67.475 55.4655 65.925C56.3155 64.375 56.7405 62.7 56.7405 60.9V46.0499C56.7405 44.65 57.2155 43.4499 58.1655 42.4499C59.1155 41.4499 60.2655 40.9499 61.6155 40.9499C62.9655 40.9499 64.1155 41.475 65.0655 42.525C66.0155 43.5749 66.4905 44.85 66.4905 46.35V47.7C65.0905 47.9 63.9405 48.575 63.0405 49.725C62.1405 50.875 61.7905 52.1749 61.9905 53.625C62.1905 55.075 62.8905 56.225 64.0905 57.075C65.2905 57.925 66.5905 58.25 67.9905 58.05C69.3905 57.85 70.5405 57.175 71.4405 56.025C72.3405 54.875 72.6905 53.5499 72.4905 52.0499ZM43.2405 31.0499C43.0405 31.0499 42.8655 30.9749 42.7155 30.825C42.5655 30.6749 42.4905 30.5 42.4905 30.2999C42.4905 30.0999 42.5655 29.9249 42.7155 29.7749C42.8655 29.625 43.0405 29.5499 43.2405 29.5499C43.4405 29.5499 43.6155 29.625 43.7655 29.7749C43.9155 29.9249 43.9905 30.0999 43.9905 30.2999C43.9905 30.5 43.9155 30.6749 43.7655 30.825C43.6155 30.9749 43.4405 31.0499 43.2405 31.0499ZM34.2405 29.5499C34.4405 29.5499 34.6155 29.625 34.7655 29.7749C34.9155 29.9249 34.9905 30.0999 34.9905 30.2999C34.9905 30.5 34.9155 30.6749 34.7655 30.825C34.6155 30.9749 34.4405 31.0499 34.2405 31.0499C34.0405 31.0499 33.8655 30.9749 33.7155 30.825C33.5655 30.6749 33.4905 30.5 33.4905 30.2999C33.4905 30.0999 33.5655 29.9249 33.7155 29.7749C33.8655 29.625 34.0405 29.5499 34.2405 29.5499ZM28.9905 44.6999V44.5499H31.2405V44.6999C31.2405 46.2999 31.7405 47.75 32.7405 49.0499C33.7405 50.35 35.0405 51.25 36.6405 51.75C38.2405 52.25 39.8655 52.25 41.5155 51.75C43.1655 51.25 44.4905 50.35 45.4905 49.0499C46.4905 47.75 46.9905 46.2999 46.9905 44.6999V44.5499H48.4905V44.6999C48.4905 46.6999 47.7655 48.525 46.3155 50.1749C44.8655 51.825 43.0405 52.9 40.8405 53.4C39.8405 53.6 38.7905 53.65 37.6905 53.5499L36.6405 53.4C34.4405 52.9 32.6155 51.825 31.1655 50.1749C29.7155 48.525 28.9905 46.6999 28.9905 44.6999ZM37.9905 58.05C37.4905 58.05 37.2405 57.55 37.2405 56.55V55.05H38.7405H40.2405V56.55C40.2405 57.55 39.9905 58.05 39.4905 58.05H37.9905ZM67.2405 56.55C66.2405 56.55 65.3655 56.2 64.6155 55.5C63.8655 54.7999 63.4905 53.9249 63.4905 52.875C63.4905 51.825 63.8655 50.9249 64.6155 50.1749C65.3655 49.4249 66.2405 49.0499 67.2405 49.0499C68.2405 49.0499 69.1155 49.4249 69.8655 50.1749C70.6155 50.9249 70.9905 51.825 70.9905 52.875C70.9905 53.9249 70.6155 54.7999 69.8655 55.5C69.1155 56.2 68.2405 56.55 67.2405 56.55ZM67.2405 50.5499C66.6405 50.5499 66.1155 50.775 65.6655 51.225C65.2155 51.6749 64.9905 52.2 64.9905 52.7999C64.9905 53.4 65.2155 53.9249 65.6655 54.375C66.1155 54.825 66.6405 55.05 67.2405 55.05C67.8405 55.05 68.3655 54.825 68.8155 54.375C69.2655 53.9249 69.4905 53.4 69.4905 52.7999C69.4905 52.2 69.2655 51.6749 68.8155 51.225C68.3655 50.775 67.8405 50.5499 67.2405 50.5499ZM67.2405 53.5499C67.0405 53.5499 66.8655 53.475 66.7155 53.325C66.5655 53.1749 66.4905 53 66.4905 52.7999C66.4905 52.6 66.5655 52.4249 66.7155 52.275C66.8655 52.125 67.0405 52.0499 67.2405 52.0499C67.4405 52.0499 67.6155 52.125 67.7655 52.275C67.9155 52.4249 67.9905 52.6 67.9905 52.7999C67.9905 53 67.9155 53.1749 67.7655 53.325C67.6155 53.475 67.4405 53.5499 67.2405 53.5499Z" fill="#470035"/>
</g>
<defs>
<clipPath id="clip0_218_451">
<rect width="45.02" height="45" fill="white" transform="matrix(1 0 0 -1 27.4805 72)"/>
</clipPath>
</defs>
</svg>
