<svg width="100" height="100" viewBox="0 0 100 100" fill="none" xmlns="http://www.w3.org/2000/svg">
<rect width="100" height="100" rx="50" fill="#CFB893" fill-opacity="0.3"/>
<g clip-path="url(#clip0_218_407)">
<path d="M40.3902 56.3996L35.8902 51.7496C34.8902 50.8496 33.7402 50.3996 32.4402 50.3996H29.2902C29.0902 50.3996 28.8902 50.4996 28.6902 50.6996C28.4902 50.8996 28.3902 51.1246 28.3902 51.3746C28.3902 51.6246 28.4902 51.8496 28.6902 52.0496C28.8902 52.2496 29.0902 52.3496 29.2902 52.3496H32.4402C33.2402 52.3496 33.9402 52.5996 34.5402 53.0996L37.3902 56.0996H29.2902C29.0902 56.0996 28.8902 56.1746 28.6902 56.3246C28.4902 56.4746 28.3902 56.6996 28.3902 56.9996C28.3902 57.2996 28.4902 57.5246 28.6902 57.6746C28.8902 57.8246 29.0902 57.8996 29.2902 57.8996H39.6402C40.0402 57.8996 40.3402 57.7246 40.5402 57.3746C40.7402 57.0246 40.6902 56.6996 40.3902 56.3996ZM39.6402 60.7496C39.4402 60.7496 39.2402 60.8496 39.0402 61.0496C38.8402 61.2496 38.7402 61.4496 38.7402 61.6496V64.4996C38.7402 64.7996 38.6402 65.0246 38.4402 65.1746C38.2402 65.3246 38.0402 65.3996 37.8402 65.3996H32.1402C31.9402 65.3996 31.7402 65.3246 31.5402 65.1746C31.3402 65.0246 31.2402 64.7996 31.2402 64.4996V60.7496C31.2402 60.4496 31.1402 60.2246 30.9402 60.0746C30.7402 59.9246 30.5152 59.8496 30.2652 59.8496C30.0152 59.8496 29.7902 59.9246 29.5902 60.0746C29.3902 60.2246 29.2902 60.4496 29.2902 60.7496V64.4996C29.2902 65.2996 29.5652 65.9746 30.1152 66.5246C30.6652 67.0746 31.3402 67.3496 32.1402 67.3496H37.8402C38.6402 67.3496 39.2902 67.0746 39.7902 66.5246C40.2902 65.9746 40.5402 65.2996 40.5402 64.4996V61.6496C40.5402 61.4496 40.4652 61.2496 40.3152 61.0496C40.1652 60.8496 39.9402 60.7496 39.6402 60.7496ZM68.2902 44.8496C65.6902 43.5496 59.5902 42.8996 49.9902 42.8996C40.3902 42.8996 34.2902 43.5496 31.6902 44.8496C30.2902 45.6496 29.2402 46.7246 28.5402 48.0746C27.8402 49.4246 27.4902 51.1496 27.4902 53.2496C27.4902 55.9496 27.7902 58.5496 28.3902 61.0496C28.5902 61.4496 28.8902 61.6496 29.2902 61.6496H37.5402L41.1402 63.4496C41.2402 63.5496 41.3902 63.5996 41.5902 63.5996H58.3902C58.5902 63.5996 58.7402 63.5496 58.8402 63.4496L62.4402 61.6496H70.6902C71.0902 61.6496 71.3902 61.4496 71.5902 61.0496C72.1902 58.5496 72.4902 55.9496 72.4902 53.2496C72.4902 51.1496 72.1402 49.4246 71.4402 48.0746C70.7402 46.7246 69.6902 45.6496 68.2902 44.8496ZM69.9402 59.8496H62.1402C62.0402 59.8496 61.8902 59.8496 61.6902 59.8496L58.2402 61.6496H41.7402L38.2902 59.8496C38.0902 59.8496 37.9402 59.8496 37.8402 59.8496H30.0402C29.5402 57.5496 29.2902 55.3496 29.2902 53.2496C29.2902 51.4496 29.5652 50.0496 30.1152 49.0496C30.6652 48.0496 31.4902 47.2496 32.5902 46.6496C34.8902 45.4496 40.6902 44.8496 49.9902 44.8496C59.2902 44.8496 65.0902 45.4496 67.3902 46.6496C68.4902 47.2496 69.3152 48.0496 69.8652 49.0496C70.4152 50.0496 70.6902 51.4496 70.6902 53.2496C70.6902 55.3496 70.4402 57.5496 69.9402 59.8496ZM70.6902 56.0996H62.5902L65.4402 53.0996C66.0402 52.5996 66.7402 52.3496 67.5402 52.3496H70.6902C70.8902 52.3496 71.0902 52.2496 71.2902 52.0496C71.4902 51.8496 71.5902 51.6246 71.5902 51.3746C71.5902 51.1246 71.4902 50.8996 71.2902 50.6996C71.0902 50.4996 70.8902 50.3996 70.6902 50.3996H67.5402C66.2402 50.3996 65.1402 50.8496 64.2402 51.7496L59.5902 56.3996C59.2902 56.6996 59.2402 57.0246 59.4402 57.3746C59.6402 57.7246 59.9402 57.8996 60.3402 57.8996H70.6902C70.8902 57.8996 71.0902 57.8246 71.2902 57.6746C71.4902 57.5246 71.5902 57.2996 71.5902 56.9996C71.5902 56.6996 71.4902 56.4746 71.2902 56.3246C71.0902 56.1746 70.8902 56.0996 70.6902 56.0996ZM61.0902 50.9996C60.9902 50.5996 60.7402 50.3996 60.3402 50.3996H39.6402C39.2402 50.3996 38.9652 50.5746 38.8152 50.9246C38.6652 51.2746 38.6902 51.6496 38.8902 52.0496L43.6902 57.5996C43.8902 57.7996 44.1402 57.8996 44.4402 57.8996H55.6902C55.8902 57.8996 56.0902 57.7996 56.2902 57.5996L61.0902 51.8996C61.2902 51.5996 61.2902 51.2996 61.0902 50.9996ZM55.2402 56.0996H44.7402L41.7402 52.3496H58.2402L55.2402 56.0996ZM68.5902 45.4496C65.5902 38.4496 63.6902 34.5996 62.8902 33.8996C62.0902 33.1996 60.6402 32.6496 58.5402 32.2496C56.4402 31.8496 53.8902 31.6496 50.8902 31.6496H49.0902C46.0902 31.6496 43.5402 31.8496 41.4402 32.2496C39.3402 32.6496 37.8902 33.1996 37.0902 33.8996C36.2902 34.5996 34.3902 38.4496 31.3902 45.4496C31.1902 45.6496 31.1402 45.8746 31.2402 46.1246C31.3402 46.3746 31.5152 46.5496 31.7652 46.6496C32.0152 46.7496 32.2652 46.7496 32.5152 46.6496C32.7652 46.5496 32.9402 46.3496 33.0402 46.0496C34.1402 43.5496 35.2402 41.1996 36.3402 38.9996C37.4402 36.7996 38.1902 35.5246 38.5902 35.1746C38.9902 34.8246 39.9402 34.4996 41.4402 34.1996C43.4402 33.7996 45.9902 33.5996 49.0902 33.5996H50.8902C53.9902 33.5996 56.5402 33.7996 58.5402 34.1996C60.0402 34.4996 60.9902 34.8246 61.3902 35.1746C61.7902 35.5246 62.5402 36.7996 63.6402 38.9996C64.7402 41.1996 65.8402 43.5496 66.9402 46.0496C67.1402 46.4496 67.4402 46.6496 67.8402 46.6496H68.1402C68.4402 46.5496 68.6402 46.3746 68.7402 46.1246C68.8402 45.8746 68.7902 45.6496 68.5902 45.4496ZM69.6402 59.8496C69.4402 59.8496 69.2402 59.9246 69.0402 60.0746C68.8402 60.2246 68.7402 60.4496 68.7402 60.7496V64.4996C68.7402 64.7996 68.6402 65.0246 68.4402 65.1746C68.2402 65.3246 68.0402 65.3996 67.8402 65.3996H62.1402C61.9402 65.3996 61.7402 65.3246 61.5402 65.1746C61.3402 65.0246 61.2402 64.7996 61.2402 64.4996V61.6496C61.2402 61.4496 61.1402 61.2496 60.9402 61.0496C60.7402 60.8496 60.5152 60.7496 60.2652 60.7496C60.0152 60.7496 59.7902 60.8496 59.5902 61.0496C59.3902 61.2496 59.2902 61.4496 59.2902 61.6496V64.4996C59.2902 65.2996 59.5652 65.9746 60.1152 66.5246C60.6652 67.0746 61.3402 67.3496 62.1402 67.3496H67.8402C68.6402 67.3496 69.2902 67.0746 69.7902 66.5246C70.2902 65.9746 70.5402 65.2996 70.5402 64.4996V60.7496C70.5402 60.4496 70.4652 60.2246 70.3152 60.0746C70.1652 59.9246 69.9402 59.8496 69.6402 59.8496Z" fill="#470035"/>
</g>
<defs>
<clipPath id="clip0_218_407">
<rect width="45.02" height="45" fill="white" transform="matrix(1 0 0 -1 27.4805 72)"/>
</clipPath>
</defs>
</svg>
