<svg width="100" height="100" viewBox="0 0 100 100" fill="none" xmlns="http://www.w3.org/2000/svg">
<path d="M0 50C0 22.3858 22.3858 0 50 0C77.6142 0 100 22.3858 100 50C100 77.6142 77.6142 100 50 100C22.3858 100 0 77.6142 0 50Z" fill="#CFB893" fill-opacity="0.3"/>
<path d="M68.44 34.8C62.14 33.1 56.14 30.55 50.44 27.15C50.14 26.95 49.84 26.95 49.54 27.15C43.84 30.55 37.84 33.1 31.54 34.8C31.04 34.9 30.79 35.2 30.79 35.7V45.3C30.79 49.8 31.74 54 33.64 57.9C35.04 60.8 36.89 63.4 39.19 65.7C41.19 67.6 43.29 69.15 45.49 70.35C47.49 71.45 48.99 72 49.99 72C50.99 72 52.49 71.45 54.49 70.35C56.69 69.15 58.79 67.6 60.79 65.7C63.09 63.4 64.94 60.8 66.34 57.9C68.24 54 69.19 49.8 69.19 45.3V35.7C69.19 35.2 68.94 34.9 68.44 34.8ZM67.24 45.3C67.24 49.5 66.39 53.4 64.69 57C63.39 59.7 61.64 62.15 59.44 64.35C57.64 66.15 55.69 67.6 53.59 68.7C51.89 69.6 50.69 70.05 49.99 70.05C49.29 70.05 48.09 69.6 46.39 68.7C44.29 67.6 42.34 66.15 40.54 64.35C38.34 62.15 36.59 59.7 35.29 57C33.59 53.4 32.74 49.5 32.74 45.3V36.45C38.74 34.75 44.49 32.3 49.99 29.1C55.49 32.2 61.24 34.65 67.24 36.45V45.3ZM41.59 36.3C41.49 36.1 41.315 35.925 41.065 35.775C40.815 35.625 40.59 35.6 40.39 35.7C38.69 36.4 36.94 37.05 35.14 37.65C34.74 37.75 34.54 38.05 34.54 38.55V42.15C34.54 42.45 34.64 42.675 34.84 42.825C35.04 42.975 35.265 43.05 35.515 43.05C35.765 43.05 35.99 42.975 36.19 42.825C36.39 42.675 36.49 42.45 36.49 42.15V39.15C37.99 38.65 39.54 38.1 41.14 37.5C41.34 37.4 41.49 37.225 41.59 36.975C41.69 36.725 41.69 36.5 41.59 36.3ZM43.39 36.45C43.49 36.45 43.64 36.45 43.84 36.45C44.04 36.35 44.19 36.175 44.29 35.925C44.39 35.675 44.39 35.425 44.29 35.175C44.19 34.925 44.015 34.75 43.765 34.65C43.515 34.55 43.29 34.55 43.09 34.65C42.79 34.75 42.59 34.925 42.49 35.175C42.39 35.425 42.415 35.7 42.565 36C42.715 36.3 42.99 36.45 43.39 36.45ZM61.24 57.45C61.04 57.35 60.815 57.325 60.565 57.375C60.315 57.425 60.09 57.55 59.89 57.75C59.19 58.95 58.29 60.1 57.19 61.2C56.39 62.1 55.49 62.9 54.49 63.6C54.29 63.8 54.165 64.025 54.115 64.275C54.065 64.525 54.14 64.75 54.34 64.95C54.54 65.15 54.765 65.25 55.015 65.25C55.265 65.25 55.49 65.2 55.69 65.1C56.69 64.3 57.64 63.45 58.54 62.55C59.74 61.35 60.74 60.1 61.54 58.8C61.64 58.6 61.665 58.375 61.615 58.125C61.565 57.875 61.44 57.65 61.24 57.45ZM52.39 65.1H52.24C52.04 65.2 51.915 65.4 51.865 65.7C51.815 66 51.865 66.275 52.015 66.525C52.165 66.775 52.365 66.9 52.615 66.9C52.865 66.9 53.09 66.85 53.29 66.75C53.49 66.65 53.64 66.45 53.74 66.15C53.84 65.85 53.815 65.6 53.665 65.4C53.515 65.2 53.315 65.075 53.065 65.025C52.815 64.975 52.59 65 52.39 65.1ZM43.54 47.55C42.94 46.95 42.215 46.65 41.365 46.65C40.515 46.65 39.79 46.95 39.19 47.55C38.59 48.15 38.29 48.875 38.29 49.725C38.29 50.575 38.59 51.3 39.19 51.9L44.74 57.45C45.34 58.05 46.065 58.35 46.915 58.35C47.765 58.35 48.49 58.05 49.09 57.45L60.79 45.9C61.39 45.3 61.69 44.575 61.69 43.725C61.69 42.875 61.39 42.15 60.79 41.55C60.19 40.95 59.465 40.65 58.615 40.65C57.765 40.65 57.04 40.95 56.44 41.55L46.99 51L43.54 47.55ZM57.79 42.9C57.99 42.6 58.265 42.45 58.615 42.45C58.965 42.45 59.24 42.575 59.44 42.825C59.64 43.075 59.74 43.35 59.74 43.65C59.74 43.95 59.64 44.25 59.44 44.55L47.74 56.1C47.54 56.4 47.265 56.55 46.915 56.55C46.565 56.55 46.29 56.4 46.09 56.1L40.54 50.55C40.34 50.35 40.24 50.075 40.24 49.725C40.24 49.375 40.34 49.1 40.54 48.9C40.74 48.7 41.015 48.6 41.365 48.6C41.715 48.6 41.99 48.7 42.19 48.9L46.24 52.95C46.44 53.15 46.665 53.25 46.915 53.25C47.165 53.25 47.39 53.15 47.59 52.95L57.79 42.9Z" fill="#470035"/>
</svg>
