<svg width="100" height="100" viewBox="0 0 100 100" fill="none" xmlns="http://www.w3.org/2000/svg">
<path d="M0 50C0 22.3858 22.3858 0 50 0C77.6142 0 100 22.3858 100 50C100 77.6142 77.6142 100 50 100C22.3858 100 0 77.6142 0 50Z" fill="#CFB893" fill-opacity="0.3"/>
<g clip-path="url(#clip0_218_487)">
<path d="M46.5405 45.15C45.2405 45.15 44.1655 45.6 43.3155 46.5C42.4655 47.4 42.0405 48.5 42.0405 49.8C42.0405 51.1 42.5405 52.35 43.5405 53.55C44.2405 54.35 45.5905 55.65 47.5905 57.45L49.3905 58.95C49.5905 59.05 49.7905 59.1 49.9905 59.1C50.1905 59.1 50.3905 59.05 50.5905 58.95L52.3905 57.45C54.3905 55.65 55.7405 54.35 56.4405 53.55C57.4405 52.35 57.9405 51.1 57.9405 49.8C57.9405 48.5 57.5155 47.4 56.6655 46.5C55.8155 45.6 54.7155 45.15 53.3655 45.15C52.0155 45.15 50.8905 45.8 49.9905 47.1C49.0905 45.8 47.9405 45.15 46.5405 45.15ZM50.8905 49.35C50.9905 48.95 51.1905 48.5 51.4905 48C51.9905 47.2 52.6405 46.8 53.4405 46.8C54.2405 46.8 54.8905 47.1 55.3905 47.7C55.8905 48.3 56.1405 49.05 56.1405 49.95C56.1405 50.85 55.6905 51.8 54.7905 52.8C54.2905 53.4 53.0905 54.5 51.1905 56.1L49.9905 57.15L48.7905 56.1C46.8905 54.5 45.6905 53.4 45.1905 52.8C44.2905 51.8 43.8405 50.85 43.8405 49.95C43.8405 49.05 44.0905 48.3 44.5905 47.7C45.0905 47.1 45.7405 46.8 46.5405 46.8C47.3405 46.8 47.9905 47.2 48.4905 48C48.7905 48.4 49.0155 48.825 49.1655 49.275C49.3155 49.725 49.5905 49.95 49.9905 49.95C50.3905 49.95 50.6905 49.75 50.8905 49.35ZM37.6905 36C37.6905 36.2 37.7655 36.4 37.9155 36.6C38.0655 36.8 38.2655 36.9 38.5155 36.9C38.7655 36.9 38.9905 36.8 39.1905 36.6C39.3905 36.4 39.4905 36.175 39.4905 35.925C39.4905 35.675 39.3905 35.475 39.1905 35.325C38.9905 35.175 38.7655 35.1 38.5155 35.1C38.2655 35.1 38.0655 35.175 37.9155 35.325C37.7655 35.475 37.6905 35.7 37.6905 36ZM66.7905 47.85C67.4905 48.35 68.2655 48.6 69.1155 48.6C69.9655 48.6 70.7405 48.25 71.4405 47.55C72.1405 46.85 72.4905 45.975 72.4905 44.925C72.4905 43.875 72.0405 43 71.1405 42.3L66.6405 38.85V27.9C66.6405 27.6 66.5655 27.375 66.4155 27.225C66.2655 27.075 66.0405 27 65.7405 27H60.4905C60.2905 27 60.0905 27.075 59.8905 27.225C59.6905 27.375 59.5905 27.6 59.5905 27.9V33.45L52.0905 27.75C51.4905 27.25 50.7905 27 49.9905 27C49.1905 27 48.4905 27.25 47.8905 27.75L41.1405 32.85C40.9405 33.05 40.8405 33.25 40.8405 33.45C40.8405 33.65 40.9155 33.85 41.0655 34.05C41.2155 34.25 41.3905 34.375 41.5905 34.425C41.7905 34.475 41.9905 34.4 42.1905 34.2L48.9405 29.1C49.2405 28.9 49.5905 28.8 49.9905 28.8C50.3905 28.8 50.7405 28.9 51.0405 29.1L70.0905 43.65C70.4905 44.05 70.6905 44.525 70.6905 45.075C70.6905 45.625 70.5155 46.05 70.1655 46.35C69.8155 46.65 69.4405 46.8 69.0405 46.8C68.6405 46.8 68.2405 46.7 67.8405 46.5L50.5905 33.15C50.1905 32.85 49.8405 32.85 49.5405 33.15L32.1405 46.5C31.7405 46.8 31.2905 46.9 30.7905 46.8C29.9905 46.8 29.4905 46.4 29.2905 45.6C29.0905 44.8 29.2905 44.15 29.8905 43.65L36.0405 39C36.1405 38.9 36.2155 38.725 36.2655 38.475C36.3155 38.225 36.2655 38 36.1155 37.8C35.9655 37.6 35.7655 37.5 35.5155 37.5C35.2655 37.5 35.0405 37.55 34.8405 37.65L28.8405 42.3C28.3405 42.7 27.9655 43.225 27.7155 43.875C27.4655 44.525 27.4405 45.2 27.6405 45.9C27.9405 47.5 28.9405 48.4 30.6405 48.6C31.5405 48.7 32.3905 48.45 33.1905 47.85H33.3405V59.85C32.3405 60.05 31.4655 60.55 30.7155 61.35C29.9655 62.15 29.4905 63.05 29.2905 64.05C28.7905 64.45 28.3655 64.975 28.0155 65.625C27.6655 66.275 27.4905 66.95 27.4905 67.65C27.4905 68.85 27.9155 69.875 28.7655 70.725C29.6155 71.575 30.6405 72 31.8405 72H68.1405C69.3405 72 70.3655 71.575 71.2155 70.725C72.0655 69.875 72.4905 68.85 72.4905 67.65C72.4905 66.95 72.3155 66.275 71.9655 65.625C71.6155 64.975 71.1905 64.45 70.6905 64.05C70.4905 63.05 70.0155 62.15 69.2655 61.35C68.5155 60.55 67.6405 60.05 66.6405 59.85V47.85H66.7905ZM61.3905 28.8H64.9905V37.5L61.3905 34.8V28.8ZM41.5905 70.2H31.8405C31.1405 70.2 30.5405 69.95 30.0405 69.45C29.5405 68.95 29.2905 68.35 29.2905 67.65C29.2905 67.15 29.4155 66.7 29.6655 66.3C29.9155 65.9 30.1905 65.6 30.4905 65.4C30.7905 65.2 30.9905 64.95 31.0905 64.65C31.1905 63.75 31.5655 63 32.2155 62.4C32.8655 61.8 33.6405 61.5 34.5405 61.5C35.7405 61.5 36.6905 62 37.3905 63C37.5905 63.3 37.8905 63.4 38.2905 63.3L38.8905 63.15C39.5905 63.15 40.2155 63.425 40.7655 63.975C41.3155 64.525 41.5905 65.15 41.5905 65.85C41.4905 66.35 41.6405 66.675 42.0405 66.825C42.4405 66.975 42.7405 67.2 42.9405 67.5C43.1405 67.8 43.2405 68.15 43.2405 68.55C43.2405 68.95 43.0905 69.325 42.7905 69.675C42.4905 70.025 42.0905 70.2 41.5905 70.2ZM56.7405 65.4C56.1405 65.7 55.6905 66.15 55.3905 66.75H44.5905C44.2905 66.15 43.8405 65.7 43.2405 65.4V64.95H56.7405V65.4ZM44.5905 70.2C44.8905 69.7 45.0405 69.15 45.0405 68.55H54.9405C54.9405 69.15 55.0905 69.7 55.3905 70.2H44.5905ZM68.8905 64.65C68.9905 64.95 69.1905 65.2 69.4905 65.4C69.7905 65.6 70.0655 65.9 70.3155 66.3C70.5655 66.7 70.6905 67.15 70.6905 67.65C70.6905 68.35 70.4405 68.95 69.9405 69.45C69.4405 69.95 68.8405 70.2 68.1405 70.2H58.3905C57.8905 70.2 57.4905 70.025 57.1905 69.675C56.8905 69.325 56.7405 68.95 56.7405 68.55C56.7405 68.15 56.8405 67.8 57.0405 67.5C57.2405 67.2 57.5405 66.975 57.9405 66.825C58.3405 66.675 58.4905 66.35 58.3905 65.85C58.3905 65.15 58.6655 64.525 59.2155 63.975C59.7655 63.425 60.3905 63.15 61.0905 63.15L61.6905 63.3C62.0905 63.4 62.3905 63.3 62.5905 63C63.2905 62 64.2405 61.5 65.4405 61.5C66.3405 61.5 67.1155 61.8 67.7655 62.4C68.4155 63 68.7905 63.75 68.8905 64.65ZM64.9905 59.7C63.5905 59.9 62.4405 60.5 61.5405 61.5H61.0905C60.3905 61.5 59.7405 61.65 59.1405 61.95C58.5405 62.25 57.9905 62.65 57.4905 63.15H42.4905C41.9905 62.65 41.4405 62.25 40.8405 61.95C40.2405 61.65 39.5905 61.5 38.8905 61.5H38.4405C37.5405 60.5 36.3905 59.9 34.9905 59.7V46.5L49.9905 34.95L64.9905 46.5V59.7Z" fill="#470035"/>
</g>
<defs>
<clipPath id="clip0_218_487">
<rect width="45.02" height="45" fill="white" transform="matrix(1 0 0 -1 27.4805 72)"/>
</clipPath>
</defs>
</svg>
