<svg width="100" height="100" viewBox="0 0 100 100" fill="none" xmlns="http://www.w3.org/2000/svg">
<path d="M0 50C0 22.3858 22.3858 0 50 0C77.6142 0 100 22.3858 100 50C100 77.6142 77.6142 100 50 100C22.3858 100 0 77.6142 0 50Z" fill="#CFB893" fill-opacity="0.3"/>
<g clip-path="url(#clip0_218_427)">
<path d="M68.4405 50.85L66.7905 51.75C65.9905 52.25 65.2405 52.25 64.5405 51.75L62.8905 50.85C62.1905 50.35 61.3905 50.1 60.4905 50.1C59.5905 50.1 58.7405 50.35 57.9405 50.85L56.2905 51.75C55.5905 52.25 54.8405 52.25 54.0405 51.75L51.9405 50.55V32.4C51.9405 31.7 52.2155 31.075 52.7655 30.525C53.3155 29.975 53.9905 29.7 54.7905 29.7C55.5905 29.7 56.2655 29.975 56.8155 30.525C57.3655 31.075 57.6405 31.7 57.6405 32.4V35.4H60.3405V32.4C60.3405 30.9 59.7905 29.625 58.6905 28.575C57.5905 27.525 56.2905 27 54.7905 27C53.2905 27 52.0155 27.525 50.9655 28.575C49.9155 29.625 49.3905 30.9 49.3905 32.4V42.9H38.2905V32.4C38.2905 31.7 38.5655 31.075 39.1155 30.525C39.6655 29.975 40.3405 29.7 41.1405 29.7C41.9405 29.7 42.6155 29.975 43.1655 30.525C43.7155 31.075 43.9905 31.7 43.9905 32.4V35.4H46.5405V32.4C46.5405 30.9 46.0155 29.625 44.9655 28.575C43.9155 27.525 42.6405 27 41.1405 27C39.6405 27 38.3405 27.525 37.2405 28.575C36.1405 29.625 35.5905 30.9 35.5905 32.4V51.6L35.4405 51.75C34.6405 52.25 33.8905 52.25 33.1905 51.75L31.5405 50.85L30.1905 53.1L31.6905 54C32.4905 54.5 33.3405 54.75 34.2405 54.75C35.1405 54.75 35.9905 54.5 36.7905 54L38.4405 53.1C39.1405 52.6 39.8905 52.6 40.6905 53.1L42.1905 54C42.9905 54.5 43.8405 54.75 44.7405 54.75C45.6405 54.75 46.4405 54.5 47.1405 54L48.7905 53.1C49.5905 52.6 50.3905 52.6 51.1905 53.1L52.6905 54C53.4905 54.5 54.3155 54.75 55.1655 54.75C56.0155 54.75 56.8405 54.5 57.6405 54L59.2905 53.1C60.0905 52.6 60.8405 52.6 61.5405 53.1L63.1905 54C63.8905 54.5 64.6905 54.75 65.5905 54.75C66.4905 54.75 67.3405 54.5 68.1405 54L69.7905 53.1L68.4405 50.85ZM49.3905 50.1C48.6905 50.2 48.0405 50.45 47.4405 50.85L45.7905 51.75C45.0905 52.25 44.3405 52.25 43.5405 51.75L42.0405 50.85C40.8405 50.15 39.5905 49.95 38.2905 50.25V45.6H49.3905V50.1ZM68.4405 59.55L66.7905 60.6C65.9905 61 65.2405 61 64.5405 60.6L62.8905 59.7C62.1905 59.2 61.3905 58.95 60.4905 58.95C59.5905 58.95 58.7405 59.15 57.9405 59.55L56.2905 60.6C55.5905 61 54.8405 61 54.0405 60.6L52.5405 59.7C51.7405 59.2 50.8905 58.95 49.9905 58.95C49.0905 58.95 48.2405 59.15 47.4405 59.55L45.7905 60.6C45.0905 61 44.3405 61 43.5405 60.6L42.0405 59.7C41.2405 59.2 40.3905 58.95 39.4905 58.95C38.5905 58.95 37.7905 59.15 37.0905 59.55L35.4405 60.6C34.6405 61 33.8905 61 33.1905 60.6L31.5405 59.7L30.1905 61.95L31.6905 62.85C32.4905 63.25 33.3405 63.475 34.2405 63.525C35.1405 63.575 35.9905 63.35 36.7905 62.85L38.4405 61.8C39.1405 61.4 39.8905 61.45 40.6905 61.95L42.1905 62.85C42.9905 63.25 43.8405 63.475 44.7405 63.525C45.6405 63.575 46.4405 63.35 47.1405 62.85L48.7905 61.8C49.5905 61.4 50.3905 61.45 51.1905 61.95L52.6905 62.85C53.4905 63.25 54.3155 63.45 55.1655 63.45C56.0155 63.45 56.8405 63.25 57.6405 62.85L59.2905 61.8C60.0905 61.4 60.8405 61.45 61.5405 61.95L63.1905 62.85C63.8905 63.25 64.6905 63.475 65.5905 63.525C66.4905 63.575 67.3405 63.35 68.1405 62.85L69.7905 61.8L68.4405 59.55ZM68.4405 68.1L66.7905 69C65.9905 69.5 65.2405 69.5 64.5405 69L62.8905 68.1C62.1905 67.6 61.3905 67.35 60.4905 67.35C59.5905 67.35 58.7405 67.6 57.9405 68.1L56.2905 69C55.5905 69.5 54.8405 69.5 54.0405 69L52.5405 68.1C51.7405 67.6 50.8905 67.35 49.9905 67.35C49.0905 67.35 48.2405 67.6 47.4405 68.1L45.7905 69C45.0905 69.5 44.3405 69.5 43.5405 69L42.0405 68.1C41.2405 67.6 40.3905 67.35 39.4905 67.35C38.5905 67.35 37.7905 67.6 37.0905 68.1L35.4405 69C34.6405 69.5 33.8905 69.5 33.1905 69L31.5405 68.1L30.1905 70.35L31.6905 71.25C32.4905 71.75 33.3405 72 34.2405 72C35.1405 72 35.9905 71.8 36.7905 71.4L38.4405 70.35C39.1405 69.95 39.8905 69.95 40.6905 70.35L42.1905 71.25C42.9905 71.75 43.8405 72 44.7405 72C45.6405 72 46.4405 71.8 47.1405 71.4L48.7905 70.35C49.5905 69.95 50.3905 69.95 51.1905 70.35L52.6905 71.25C53.4905 71.75 54.3155 72 55.1655 72C56.0155 72 56.8405 71.8 57.6405 71.4L59.2905 70.35C60.0905 69.95 60.8405 69.95 61.5405 70.35L63.1905 71.25C63.8905 71.75 64.6905 72 65.5905 72C66.4905 72 67.3405 71.8 68.1405 71.4L69.7905 70.35L68.4405 68.1Z" fill="#470035"/>
</g>
<defs>
<clipPath id="clip0_218_427">
<rect width="45.02" height="45" fill="white" transform="matrix(1 0 0 -1 27.4805 72)"/>
</clipPath>
</defs>
</svg>
