<svg id="Layer_1" enable-background="new 0 0 468 468" height="512" viewBox="0 0 468 468" width="512" xmlns="http://www.w3.org/2000/svg"><g><g>
<path d="m322.494 127.403c-3.584 0-6.527-3.564-5.901-7.059.204-1.137 5.152-27.996 19.764-42.911 10.054-10.258 27.947-6.575 33.378 6.657 4.214 10.269-.395 21.89-10.494 26.458-14.311 6.473-33.899 16.139-34.096 16.235-.841.416-1.749.62-2.651.62zm28.252-44.038c-2.19 0-4.252.86-5.831 2.471-6.437 6.571-10.71 16.559-13.294 24.447 6.793-3.277 15.403-7.377 22.683-10.67 8.151-3.687 5.354-16.248-3.558-16.248z" fill="#470035"/></g><g>
<path d="m145.507 127.403c-.903 0-1.81-.204-2.651-.619-.196-.097-19.789-9.764-34.096-16.235-10.099-4.568-14.708-16.189-10.494-26.458 5.717-13.009 23.13-17.116 33.377-6.657 14.613 14.915 19.561 41.774 19.765 42.911.626 3.495-2.317 7.058-5.901 7.058zm-28.252-44.038c-8.918 0-11.712 12.559-3.558 16.248 7.28 3.293 15.89 7.393 22.683 10.67-2.584-7.888-6.857-17.877-13.295-24.447-1.578-1.61-3.64-2.471-5.83-2.471z" fill="#470035"/></g><g><g>
<path d="m79.036 28h-32.841c-3.31 0-5.994-2.687-5.994-6s2.684-6 5.994-6h32.841c3.31 0 5.994 2.687 5.994 6s-2.684 6-5.994 6z" fill="#470035"/></g><g>
<path d="m49.067 94.129h-42.831c-3.31 0-5.994-2.687-5.994-6s2.684-6 5.994-6h42.831c3.31 0 5.994 2.687 5.994 6s-2.684 6-5.994 6z" fill="#470035"/></g></g><g><g>
<path d="m421.806 28h-32.841c-3.31 0-5.994-2.687-5.994-6s2.684-6 5.994-6h32.841c3.31 0 5.994 2.687 5.994 6s-2.684 6-5.994 6z" fill="#470035"/></g><g>
<path d="m461.764 94.129h-42.831c-3.31 0-5.994-2.687-5.994-6s2.684-6 5.994-6h42.831c3.31 0 5.994 2.687 5.994 6s-2.684 6-5.994 6z" fill="#470035"/></g></g><g><ellipse cx="329.5" cy="150.149" rx="7.008" ry="7"/></g><g><ellipse cx="154.681" cy="148.149" rx="7.008" ry="7"/></g><g>
<path d="m461.101 251.702c4.385-7.248 6.657-14.797 6.657-22.534 0-16.805-10.81-33.063-31.263-47.02-18.749-12.795-45.62-23.718-77.706-31.589-3.215-.792-6.46 1.181-7.247 4.399-.788 3.218 1.179 6.467 4.395 7.255 61.579 15.107 99.833 40.763 99.833 66.954 0 20.16-22.906 40.429-62.844 55.61-42.356 16.102-98.797 24.969-158.926 24.969s-116.57-8.867-158.926-24.968c-39.938-15.182-62.844-35.45-62.844-55.61 0-28.095 44.399-55.56 113.113-69.971 3.24-.679 5.316-3.859 4.637-7.103-.678-3.242-3.848-5.322-7.095-4.642-76.795 16.107-122.643 46.654-122.643 81.716 0 7.737 2.272 15.286 6.657 22.534-8.571 14.18-8.58 30.906 0 45.088-7.994 13.225-8.705 28.909-1.421 42.587-23.175 43.601 32.656 74.449 65.341 86.874 43.682 16.604 101.634 25.749 163.181 25.749s119.499-9.145 163.182-25.749c32.684-12.424 88.515-43.274 65.341-86.874 7.282-13.673 6.575-29.359-1.421-42.587 8.577-14.177 8.573-30.904-.001-45.088zm-68.175 163.331c-42.356 16.1-98.797 24.967-158.926 24.967s-116.57-8.867-158.926-24.967c-23.424-8.904-72.029-30.737-61.487-64.14 11.781 13.325 31.138 25.361 57.232 35.28 43.682 16.604 101.635 25.749 163.182 25.749s119.499-9.145 163.182-25.749c26.094-9.919 45.451-21.956 57.232-35.281 10.509 33.417-38.077 55.242-61.489 64.141zm0-40.079c-42.356 16.101-98.797 24.968-158.926 24.968s-116.57-8.867-158.926-24.968c-24.219-9.206-75.592-32.947-60.132-67.658 11.886 12.731 30.76 24.241 55.876 33.789 43.682 16.604 101.635 25.749 163.182 25.749s119.499-9.145 163.182-25.749c25.12-9.548 43.995-21.06 55.881-33.793 15.42 34.724-35.942 58.465-60.137 67.662zm0-45.088c-42.356 16.101-98.797 24.968-158.926 24.968s-116.57-8.867-158.926-24.968c-24.222-9.208-75.587-32.945-60.13-67.655 11.886 12.73 30.759 24.24 55.874 33.786 43.682 16.604 101.635 25.749 163.182 25.749s119.499-9.145 163.182-25.749c25.132-9.553 44.015-21.072 55.899-33.813 15.43 34.726-35.978 58.492-60.155 67.682z" fill="#470035"/>
<path d="m386.641 195.373c-21.08-8.016-49.899-14.12-83.468-17.723-8.72-17.223-23.35-30.457-41.166-37.355 20.501-10.075 34.611-30.833 34.611-54.765 0-3.288-.274-6.513-.786-9.662 11.061-4.84 18.62-15.957 18.62-28.362 0-17.064-13.874-30.947-30.929-30.947-9.905 0-19.134 4.833-24.895 12.657-15.575-6.544-33.66-6.547-49.237-.008-5.764-7.823-15.008-12.649-24.913-12.649-17.055 0-30.929 13.883-30.929 30.947 0 12.407 7.554 23.536 18.618 28.376-.511 3.145-.784 6.366-.784 9.649 0 24.006 14.195 44.818 34.797 54.859-18.066 7.086-32.594 20.545-41.19 37.239-33.607 3.598-62.455 9.705-83.568 17.721-24.701 9.38-37.225 20.759-37.225 33.819 0 16.319 20.155 30.328 58.285 40.513 35.207 9.404 81.914 14.583 131.518 14.583s96.311-5.179 131.518-14.583c38.13-10.185 58.285-24.193 58.285-40.513.001-13.051-12.503-24.421-37.162-33.796zm-103.118-166.815c10.444 0 18.941 8.5 18.941 18.947 0 6.987-3.919 13.302-9.816 16.577-4.557-11.886-12.783-22.028-23.325-29.101 3.549-4.008 8.712-6.423 14.2-6.423zm-33.844 10.142c-12.622 24.758-37.821 40.522-65.918 40.815 3.061-24.333 24.416-43.244 50.239-43.244 5.472 0 10.739.859 15.679 2.429zm-84.143 8.805c0-10.447 8.497-18.947 18.941-18.947 5.488 0 10.651 2.415 14.2 6.424-10.543 7.073-18.769 17.215-23.325 29.101-5.897-3.276-9.816-9.591-9.816-16.578zm18.221 44.01c32.84-.293 62.278-18.814 76.848-47.871 14.406 8.694 24.025 24.214 24.025 41.885 0 27.161-22.713 49.259-50.63 49.259-25.834 0-47.196-18.927-50.243-43.273zm63.23 53.947v18.478c0 7.168-5.826 13-12.987 13s-12.987-5.832-12.987-13v-18.478c.012.002.025 0 .038.001 4.18.864 8.51 1.325 12.949 1.325 4.449 0 8.789-.464 12.978-1.332.003.001.006.006.009.006zm-78.605 67.419c0-26.566 16.362-50.499 40.644-60.716v11.774c0 13.785 11.203 25 24.974 25s24.974-11.215 24.974-25v-11.898c15.366 6.329 27.823 18.26 34.8 33.69 3.878 8.578 5.845 17.713 5.845 27.149v10.022c-2.56 2.586-4.798 5.525-6.632 8.766-9.005-5.82-20.645-6.804-30.471-2.497-15.723-20.047-46.091-22.651-64.721-5.11-7.8-7.376-18.951-10.436-29.413-8.069zm-101.186 29.932c-7.775-5.057-11.012-9.848-11.012-13.645 0-13.192 36.253-30.829 103.63-38.877-2.596 8.415-3.509 17.018-3.421 25.787-6.09-7.506-15.316-12.188-25.244-12.188-15.642 0-28.749 11.221-31.907 26.142-11.995-1.152-24.102 3.734-32.046 12.781zm295.232 15.274c-34.227 9.142-79.837 14.177-128.428 14.177s-94.2-5.035-128.428-14.177c-11.271-3.01-20.291-6.2-27.381-9.394 6.596-6.049 16.05-8.306 24.648-5.802 4.057 1.177 7.392-2.097 7.666-5.93.014-11.621 9.27-21.071 20.645-21.071 9.027 0 17.152 6.162 19.762 14.986 1.276 4.317 6.887 5.709 10.032 2.493 9.001-9.211 24.622-7.596 31.709 3.092 2.238 3.376 7.281 3.55 9.747.337 13.775-17.946 41.641-16.064 53.088 3.294 1.737 2.938 5.708 3.826 8.528 1.904 8.393-5.714 20.005-4.171 26.73 3.413 3.027 3.417 8.795 2.199 10.19-2.147 3.934-12.263 15.075-20.501 27.722-20.501 14.143 0 26.214 10.298 28.704 24.486.954 5.445 8.442 6.715 11.135 1.889 6.233-11.163 21.539-14.083 31.267-5.668-7.838 4.872-19.891 9.959-37.336 14.619zm46.621-22.353c-11.766-11.503-30.827-12.229-43.439-1.628-6.76-14.008-20.908-23.344-36.953-23.344-6.035 0-11.815 1.34-17.051 3.753v-1.634c0-7.733-1.144-15.289-3.358-22.58 67.335 8.051 103.568 25.686 103.568 38.867 0 1.957-.868 4.18-2.767 6.566z" fill="#470035" /></g></g></svg>