<svg width="32" height="32" viewBox="0 0 32 32" fill="none" xmlns="http://www.w3.org/2000/svg">
<g clip-path="url(#clip0_218_193)">
<path d="M31.7029 15.36L16.6689 0.32C16.5267 0.106667 16.3135 0 16.0291 0C15.7448 0 15.5316 0.106667 15.3894 0.32L0.355413 15.36C0 15.6444 -0.0888534 15.9822 0.0888534 16.3733C0.26656 16.7644 0.568661 16.96 0.995157 16.96H4.08725V31.04C4.08725 31.3244 4.17611 31.5556 4.35381 31.7333C4.53152 31.9111 4.727 32 4.94025 32H27.118C27.3313 32 27.5268 31.9111 27.7045 31.7333C27.8822 31.5556 27.971 31.3244 27.971 31.04V16.96H31.0631C31.4896 16.96 31.7917 16.7644 31.9694 16.3733C32.1471 15.9822 32.0583 15.6444 31.7029 15.36ZM27.118 15.04C26.8337 15.04 26.6027 15.1289 26.425 15.3067C26.2473 15.4844 26.1584 15.7156 26.1584 16V30.08H5.89986V16C5.89986 15.7156 5.81101 15.4844 5.6333 15.3067C5.4556 15.1289 5.22458 15.04 4.94025 15.04H3.23426L16.0291 2.24L28.824 15.04H27.118Z" fill="#470035"/>
<path d="M22.2852 24.5095V17.4905C22.6752 17.3906 23.0317 17.1893 23.3186 16.907C23.6056 16.6248 23.8127 16.2716 23.919 15.8834C24.0253 15.4952 24.027 15.0857 23.9239 14.6966C23.8208 14.3076 23.6165 13.9527 23.3319 13.6681C23.0473 13.3835 22.6924 13.1792 22.3034 13.0761C21.9143 12.973 21.5048 12.9747 21.1166 13.081C20.7284 13.1873 20.3752 13.3944 20.093 13.6814C19.8107 13.9683 19.6094 14.3248 19.5095 14.7148H12.4905C12.3906 14.3248 12.1893 13.9683 11.907 13.6814C11.6248 13.3944 11.2716 13.1873 10.8834 13.081C10.4952 12.9747 10.0857 12.973 9.69664 13.0761C9.30756 13.1792 8.9527 13.3835 8.66808 13.6681C8.38346 13.9527 8.17923 14.3076 8.07612 14.6966C7.973 15.0857 7.97468 15.4952 8.08099 15.8834C8.18729 16.2716 8.39443 16.6248 8.68137 16.907C8.96832 17.1893 9.32485 17.3906 9.71476 17.4905V24.5095C9.32485 24.6094 8.96832 24.8107 8.68137 25.093C8.39443 25.3752 8.18729 25.7284 8.08099 26.1166C7.97468 26.5048 7.973 26.9143 8.07612 27.3034C8.17923 27.6924 8.38346 28.0473 8.66808 28.3319C8.9527 28.6165 9.30756 28.8208 9.69664 28.9239C10.0857 29.027 10.4952 29.0253 10.8834 28.919C11.2716 28.8127 11.6248 28.6056 11.907 28.3186C12.1893 28.0317 12.3906 27.6752 12.4905 27.2852H19.5095C19.6094 27.6752 19.8107 28.0317 20.093 28.3186C20.3752 28.6056 20.7284 28.8127 21.1166 28.919C21.5048 29.0253 21.9143 29.027 22.3034 28.9239C22.6924 28.8208 23.0473 28.6165 23.3319 28.3319C23.6165 28.0473 23.8208 27.6924 23.9239 27.3034C24.027 26.9143 24.0253 26.5048 23.919 26.1166C23.8127 25.7284 23.6056 25.3752 23.3186 25.093C23.0317 24.8107 22.6752 24.6094 22.2852 24.5095ZM21.7139 14.1434C21.9399 14.1434 22.1608 14.2104 22.3487 14.336C22.5367 14.4615 22.6831 14.64 22.7696 14.8488C22.8561 15.0576 22.8788 15.2874 22.8347 15.5091C22.7906 15.7308 22.6817 15.9344 22.5219 16.0942C22.3621 16.254 22.1585 16.3629 21.9368 16.407C21.7151 16.4511 21.4854 16.4284 21.2765 16.3419C21.0677 16.2554 20.8892 16.109 20.7637 15.921C20.6381 15.7331 20.5711 15.5122 20.5711 15.2861C20.5711 14.9831 20.6915 14.6924 20.9058 14.4781C21.1201 14.2638 21.4108 14.1434 21.7139 14.1434ZM9.14337 15.2861C9.14337 15.0601 9.21039 14.8392 9.33596 14.6513C9.46153 14.4633 9.64001 14.3169 9.84882 14.2304C10.0576 14.1439 10.2874 14.1212 10.5091 14.1653C10.7308 14.2094 10.9344 14.3183 11.0942 14.4781C11.254 14.6379 11.3629 14.8415 11.407 15.0632C11.4511 15.2849 11.4284 15.5146 11.3419 15.7235C11.2554 15.9323 11.109 16.1108 10.921 16.2363C10.7331 16.3619 10.5122 16.4289 10.2861 16.4289C9.98306 16.4289 9.69239 16.3085 9.47808 16.0942C9.26377 15.8799 9.14337 15.5892 9.14337 15.2861ZM10.2861 27.8566C10.0601 27.8566 9.83918 27.7896 9.65125 27.664C9.46333 27.5385 9.31685 27.36 9.23036 27.1512C9.14387 26.9424 9.12124 26.7126 9.16533 26.4909C9.20942 26.2692 9.31826 26.0656 9.47808 25.9058C9.6379 25.746 9.84152 25.6371 10.0632 25.593C10.2849 25.5489 10.5146 25.5716 10.7235 25.6581C10.9323 25.7446 11.1108 25.891 11.2363 26.079C11.3619 26.2669 11.4289 26.4878 11.4289 26.7139C11.4289 27.0169 11.3085 27.3076 11.0942 27.5219C10.8799 27.7362 10.5892 27.8566 10.2861 27.8566ZM19.5095 26.1425H12.4905C12.3879 25.7498 12.1825 25.3915 11.8955 25.1045C11.6085 24.8175 11.2502 24.6121 10.8575 24.5095V17.4905C11.2502 17.3879 11.6085 17.1825 11.8955 16.8955C12.1825 16.6085 12.3879 16.2502 12.4905 15.8575H19.5095C19.6121 16.2502 19.8175 16.6085 20.1045 16.8955C20.3915 17.1825 20.7498 17.3879 21.1425 17.4905V24.5095C20.7495 24.6116 20.391 24.8168 20.1039 25.1039C19.8168 25.391 19.6116 25.7495 19.5095 26.1425ZM21.7139 27.8566C21.4878 27.8566 21.2669 27.7896 21.079 27.664C20.891 27.5385 20.7446 27.36 20.6581 27.1512C20.5716 26.9424 20.5489 26.7126 20.593 26.4909C20.6371 26.2692 20.746 26.0656 20.9058 25.9058C21.0656 25.746 21.2692 25.6371 21.4909 25.593C21.7126 25.5489 21.9424 25.5716 22.1512 25.6581C22.36 25.7446 22.5385 25.891 22.664 26.079C22.7896 26.2669 22.8566 26.4878 22.8566 26.7139C22.8562 27.0168 22.7356 27.3072 22.5214 27.5214C22.3072 27.7356 22.0168 27.8562 21.7139 27.8566Z" fill="#470035"/>
</g>
<defs>
<clipPath id="clip0_218_193">
<rect width="32" height="32" fill="white" transform="matrix(1 0 0 -1 0 32)"/>
</clipPath>
</defs>
</svg>
