<svg width="32" height="32" viewBox="0 0 32 32" fill="none" xmlns="http://www.w3.org/2000/svg">
<g clip-path="url(#clip0_218_81)">
<path d="M31.7029 15.36L16.6689 0.32C16.5267 0.106667 16.3135 0 16.0291 0C15.7448 0 15.5316 0.106667 15.3894 0.32L0.355413 15.36C0 15.6444 -0.0888534 15.9822 0.0888534 16.3733C0.26656 16.7644 0.568661 16.96 0.995157 16.96H4.08725V31.04C4.08725 31.3244 4.17611 31.5556 4.35381 31.7333C4.53152 31.9111 4.727 32 4.94025 32H27.118C27.3313 32 27.5268 31.9111 27.7045 31.7333C27.8822 31.5556 27.971 31.3244 27.971 31.04V16.96H31.0631C31.4896 16.96 31.7917 16.7644 31.9694 16.3733C32.1471 15.9822 32.0583 15.6444 31.7029 15.36ZM27.118 15.04C26.8337 15.04 26.6027 15.1289 26.425 15.3067C26.2473 15.4844 26.1584 15.7156 26.1584 16V30.08H5.89986V16C5.89986 15.7156 5.81101 15.4844 5.6333 15.3067C5.4556 15.1289 5.22458 15.04 4.94025 15.04H3.23426L16.0291 2.24L28.824 15.04H27.118Z" fill="#470035"/>
<path fill-rule="evenodd" clip-rule="evenodd" d="M22.2921 14C22.4799 14 22.6599 14.0746 22.7927 14.2073C22.9254 14.3401 23 14.5201 23 14.7079V21C23 21.1877 22.9254 21.3678 22.7927 21.5005C22.6599 21.6333 22.4799 21.7079 22.2921 21.7079C22.1044 21.7079 21.9243 21.6333 21.7916 21.5005C21.6588 21.3678 21.5843 21.1877 21.5843 21V16.4162L11.4162 26.5843H16C16.1877 26.5843 16.3678 26.6588 16.5005 26.7916C16.6333 26.9243 16.7079 27.1044 16.7079 27.2921C16.7079 27.4799 16.6333 27.6599 16.5005 27.7927C16.3678 27.9254 16.1877 28 16 28H9.70787C9.52013 28 9.34008 27.9254 9.20733 27.7927C9.07458 27.6599 9 27.4799 9 27.2921V21C9 20.907 9.01831 20.815 9.05388 20.7291C9.08946 20.6432 9.1416 20.5652 9.20733 20.4995C9.27306 20.4337 9.35109 20.3816 9.43698 20.346C9.52286 20.3104 9.61491 20.2921 9.70787 20.2921C9.80082 20.2921 9.89287 20.3104 9.97875 20.346C10.0646 20.3816 10.1427 20.4337 10.2084 20.4995C10.2741 20.5652 10.3263 20.6432 10.3618 20.7291C10.3974 20.815 10.4157 20.907 10.4157 21V25.5838L20.5838 15.4157H16C15.8123 15.4157 15.6322 15.3412 15.4995 15.2084C15.3667 15.0757 15.2921 14.8956 15.2921 14.7079C15.2921 14.5201 15.3667 14.3401 15.4995 14.2073C15.6322 14.0746 15.8123 14 16 14H22.2921Z" fill="#470035"/>
</g>
<defs>
<clipPath id="clip0_218_81">
<rect width="32" height="32" fill="white" transform="matrix(1 0 0 -1 0 32)"/>
</clipPath>
</defs>
</svg>
