<svg width="32" height="32" viewBox="0 0 32 32" fill="none" xmlns="http://www.w3.org/2000/svg">
<g clip-path="url(#clip0_218_186)">
<path d="M31.7029 15.36L16.6689 0.32C16.5267 0.106667 16.3135 0 16.0291 0C15.7448 0 15.5316 0.106667 15.3894 0.32L0.355413 15.36C0 15.6444 -0.0888534 15.9822 0.0888534 16.3733C0.26656 16.7644 0.568661 16.96 0.995157 16.96H4.08725V31.04C4.08725 31.3244 4.17611 31.5556 4.35381 31.7333C4.53152 31.9111 4.727 32 4.94025 32H27.118C27.3313 32 27.5268 31.9111 27.7045 31.7333C27.8822 31.5556 27.971 31.3244 27.971 31.04V16.96H31.0631C31.4896 16.96 31.7917 16.7644 31.9694 16.3733C32.1471 15.9822 32.0583 15.6444 31.7029 15.36ZM27.118 15.04C26.8337 15.04 26.6027 15.1289 26.425 15.3067C26.2473 15.4844 26.1584 15.7156 26.1584 16V30.08H5.89986V16C5.89986 15.7156 5.81101 15.4844 5.6333 15.3067C5.4556 15.1289 5.22458 15.04 4.94025 15.04H3.23426L16.0291 2.24L28.824 15.04H27.118Z" fill="#470035"/>
<path fill-rule="evenodd" clip-rule="evenodd" d="M16 13C17.8565 13 19.637 13.7523 20.9497 15.0914C22.2625 16.4305 23 18.2466 23 20.1404C23 22.5792 21.6964 24.5754 20.3229 26.0074C19.6366 26.7152 18.8878 27.3568 18.086 27.9242L17.7547 28.1543L17.5991 28.2598L17.3059 28.4502L17.0446 28.6129L16.721 28.8049C16.5014 28.9327 16.2529 29 16 29C15.7471 29 15.4986 28.9327 15.279 28.8049L14.9554 28.6129L14.551 28.359L14.4017 28.2598L14.0828 28.0432C13.2178 27.4462 12.412 26.7644 11.6771 26.0074C10.3036 24.5746 9 22.5792 9 20.1404C9 18.2466 9.7375 16.4305 11.0503 15.0914C12.363 13.7523 14.1435 13 16 13ZM16 14.5868C14.556 14.5868 13.1712 15.1719 12.1502 16.2134C11.1292 17.2549 10.5556 18.6675 10.5556 20.1404C10.5556 21.9826 11.5449 23.5995 12.7886 24.8975C13.3233 25.4497 13.9013 25.9565 14.5168 26.4128L14.873 26.6715C14.9881 26.7535 15.0988 26.8296 15.2051 26.9L15.5084 27.0983L15.7752 27.2641L16 27.3982L16.3539 27.1848L16.6393 27.0023C16.7913 26.9039 16.9538 26.7937 17.127 26.6715L17.4832 26.4128C18.0987 25.9565 18.6767 25.4497 19.2114 24.8975C20.4551 23.6003 21.4444 21.9826 21.4444 20.1404C21.4444 18.6675 20.8708 17.2549 19.8498 16.2134C18.8288 15.1719 17.444 14.5868 16 14.5868ZM16 16.9669C16.8251 16.9669 17.6164 17.3012 18.1999 17.8964C18.7833 18.4915 19.1111 19.2987 19.1111 20.1404C19.1111 20.9821 18.7833 21.7893 18.1999 22.3844C17.6164 22.9796 16.8251 23.3139 16 23.3139C15.1749 23.3139 14.3836 22.9796 13.8001 22.3844C13.2167 21.7893 12.8889 20.9821 12.8889 20.1404C12.8889 19.2987 13.2167 18.4915 13.8001 17.8964C14.3836 17.3012 15.1749 16.9669 16 16.9669ZM16 18.5536C15.5874 18.5536 15.1918 18.7208 14.9001 19.0184C14.6083 19.316 14.4444 19.7196 14.4444 20.1404C14.4444 20.5612 14.6083 20.9648 14.9001 21.2624C15.1918 21.56 15.5874 21.7272 16 21.7272C16.4126 21.7272 16.8082 21.56 17.0999 21.2624C17.3917 20.9648 17.5556 20.5612 17.5556 20.1404C17.5556 19.7196 17.3917 19.316 17.0999 19.0184C16.8082 18.7208 16.4126 18.5536 16 18.5536Z" fill="#470035"/>
</g>
<defs>
<clipPath id="clip0_218_186">
<rect width="32" height="32" fill="white" transform="matrix(1 0 0 -1 0 32)"/>
</clipPath>
</defs>
</svg>
