<svg width="32" height="32" viewBox="0 0 32 32" fill="none" xmlns="http://www.w3.org/2000/svg">
<g clip-path="url(#clip0_218_98)">
<path d="M31.7029 15.36L16.6689 0.32C16.5267 0.106667 16.3135 0 16.0291 0C15.7448 0 15.5316 0.106667 15.3894 0.32L0.355413 15.36C0 15.6444 -0.0888534 15.9822 0.0888534 16.3733C0.26656 16.7644 0.568661 16.96 0.995157 16.96H4.08725V31.04C4.08725 31.3244 4.17611 31.5556 4.35381 31.7333C4.53152 31.9111 4.727 32 4.94025 32H27.118C27.3313 32 27.5268 31.9111 27.7045 31.7333C27.8822 31.5556 27.971 31.3244 27.971 31.04V16.96H31.0631C31.4896 16.96 31.7917 16.7644 31.9694 16.3733C32.1471 15.9822 32.0583 15.6444 31.7029 15.36ZM27.118 15.04C26.8337 15.04 26.6027 15.1289 26.425 15.3067C26.2473 15.4844 26.1584 15.7156 26.1584 16V30.08H5.89986V16C5.89986 15.7156 5.81101 15.4844 5.6333 15.3067C5.4556 15.1289 5.22458 15.04 4.94025 15.04H3.23426L16.0291 2.24L28.824 15.04H27.118Z" fill="#470035"/>
<path d="M20.9 15.4H19.5V14.7C19.5 14.5143 19.4263 14.3363 19.295 14.205C19.1637 14.0737 18.9857 14 18.8 14C18.6143 14 18.4363 14.0737 18.305 14.205C18.1737 14.3363 18.1 14.5143 18.1 14.7V15.4H13.9V14.7C13.9 14.5143 13.8263 14.3363 13.695 14.205C13.5637 14.0737 13.3857 14 13.2 14C13.0143 14 12.8363 14.0737 12.705 14.205C12.5737 14.3363 12.5 14.5143 12.5 14.7V15.4H11.1C10.543 15.4 10.0089 15.6212 9.61508 16.0151C9.22125 16.4089 9 16.943 9 17.5V25.9C9 26.457 9.22125 26.9911 9.61508 27.3849C10.0089 27.7788 10.543 28 11.1 28H20.9C21.457 28 21.9911 27.7788 22.3849 27.3849C22.7788 26.9911 23 26.457 23 25.9V17.5C23 16.943 22.7788 16.4089 22.3849 16.0151C21.9911 15.6212 21.457 15.4 20.9 15.4ZM21.6 25.9C21.6 26.0857 21.5263 26.2637 21.395 26.395C21.2637 26.5263 21.0857 26.6 20.9 26.6H11.1C10.9143 26.6 10.7363 26.5263 10.605 26.395C10.4737 26.2637 10.4 26.0857 10.4 25.9V21H21.6V25.9ZM21.6 19.6H10.4V17.5C10.4 17.3143 10.4737 17.1363 10.605 17.005C10.7363 16.8737 10.9143 16.8 11.1 16.8H12.5V17.5C12.5 17.6857 12.5737 17.8637 12.705 17.995C12.8363 18.1262 13.0143 18.2 13.2 18.2C13.3857 18.2 13.5637 18.1262 13.695 17.995C13.8263 17.8637 13.9 17.6857 13.9 17.5V16.8H18.1V17.5C18.1 17.6857 18.1737 17.8637 18.305 17.995C18.4363 18.1262 18.6143 18.2 18.8 18.2C18.9857 18.2 19.1637 18.1262 19.295 17.995C19.4263 17.8637 19.5 17.6857 19.5 17.5V16.8H20.9C21.0857 16.8 21.2637 16.8737 21.395 17.005C21.5263 17.1363 21.6 17.3143 21.6 17.5V19.6Z" fill="#470035"/>
</g>
<defs>
<clipPath id="clip0_218_98">
<rect width="32" height="32" fill="white" transform="matrix(1 0 0 -1 0 32)"/>
</clipPath>
</defs>
</svg>
