<svg width="32" height="32" viewBox="0 0 32 32" fill="none" xmlns="http://www.w3.org/2000/svg">
<g clip-path="url(#clip0_218_177)">
<path d="M31.7029 15.36L16.6689 0.32C16.5267 0.106667 16.3135 0 16.0291 0C15.7448 0 15.5316 0.106667 15.3894 0.32L0.355413 15.36C0 15.6444 -0.0888534 15.9822 0.0888534 16.3733C0.26656 16.7644 0.568661 16.96 0.995157 16.96H4.08725V31.04C4.08725 31.3244 4.17611 31.5556 4.35381 31.7333C4.53152 31.9111 4.727 32 4.94025 32H27.118C27.3313 32 27.5268 31.9111 27.7045 31.7333C27.8822 31.5556 27.971 31.3244 27.971 31.04V16.96H31.0631C31.4896 16.96 31.7917 16.7644 31.9694 16.3733C32.1471 15.9822 32.0583 15.6444 31.7029 15.36ZM27.118 15.04C26.8337 15.04 26.6027 15.1289 26.425 15.3067C26.2473 15.4844 26.1584 15.7156 26.1584 16V30.08H5.89986V16C5.89986 15.7156 5.81101 15.4844 5.6333 15.3067C5.4556 15.1289 5.22458 15.04 4.94025 15.04H3.23426L16.0291 2.24L28.824 15.04H27.118Z" fill="#470035"/>
<path d="M9.864 23.944H11.656V25H8.496V19.384H9.864V23.944ZM16.5165 22.696C16.5165 22.824 16.5085 22.9573 16.4925 23.096H13.3965C13.4178 23.3733 13.5058 23.5867 13.6605 23.736C13.8205 23.88 14.0152 23.952 14.2445 23.952C14.5858 23.952 14.8232 23.808 14.9565 23.52H16.4125C16.3378 23.8133 16.2018 24.0773 16.0045 24.312C15.8125 24.5467 15.5698 24.7307 15.2765 24.864C14.9832 24.9973 14.6552 25.064 14.2925 25.064C13.8552 25.064 13.4658 24.9707 13.1245 24.784C12.7832 24.5973 12.5165 24.3307 12.3245 23.984C12.1325 23.6373 12.0365 23.232 12.0365 22.768C12.0365 22.304 12.1298 21.8987 12.3165 21.552C12.5085 21.2053 12.7752 20.9387 13.1165 20.752C13.4578 20.5653 13.8498 20.472 14.2925 20.472C14.7245 20.472 15.1085 20.5627 15.4445 20.744C15.7805 20.9253 16.0418 21.184 16.2285 21.52C16.4205 21.856 16.5165 22.248 16.5165 22.696ZM15.1165 22.336C15.1165 22.1013 15.0365 21.9147 14.8765 21.776C14.7165 21.6373 14.5165 21.568 14.2765 21.568C14.0472 21.568 13.8525 21.6347 13.6925 21.768C13.5378 21.9013 13.4418 22.0907 13.4045 22.336H15.1165ZM19.4782 21.672H18.7422V25H17.3742V21.672H16.8782V20.536H17.3742V20.408C17.3742 19.8587 17.5315 19.4427 17.8462 19.16C18.1609 18.872 18.6222 18.728 19.2302 18.728C19.3315 18.728 19.4062 18.7307 19.4542 18.736V19.896C19.1929 19.88 19.0089 19.9173 18.9022 20.008C18.7955 20.0987 18.7422 20.2613 18.7422 20.496V20.536H19.4782V21.672ZM22.609 23.84V25H21.913C21.417 25 21.0303 24.88 20.753 24.64C20.4757 24.3947 20.337 23.9973 20.337 23.448V21.672H19.793V20.536H20.337V19.448H21.705V20.536H22.601V21.672H21.705V23.464C21.705 23.5973 21.737 23.6933 21.801 23.752C21.865 23.8107 21.9717 23.84 22.121 23.84H22.609Z" fill="#470035"/>
</g>
<defs>
<clipPath id="clip0_218_177">
<rect width="32" height="32" fill="white" transform="matrix(1 0 0 -1 0 32)"/>
</clipPath>
</defs>
</svg>
