<svg width="32" height="32" viewBox="0 0 32 32" fill="none" xmlns="http://www.w3.org/2000/svg">
<g clip-path="url(#clip0_218_121)">
<path d="M31.7029 15.36L16.6689 0.32C16.5267 0.106667 16.3135 0 16.0291 0C15.7448 0 15.5316 0.106667 15.3894 0.32L0.355413 15.36C0 15.6444 -0.0888534 15.9822 0.0888534 16.3733C0.26656 16.7644 0.568661 16.96 0.995157 16.96H4.08725V31.04C4.08725 31.3244 4.17611 31.5556 4.35381 31.7333C4.53152 31.9111 4.727 32 4.94025 32H27.118C27.3313 32 27.5268 31.9111 27.7045 31.7333C27.8822 31.5556 27.971 31.3244 27.971 31.04V16.96H31.0631C31.4896 16.96 31.7917 16.7644 31.9694 16.3733C32.1471 15.9822 32.0583 15.6444 31.7029 15.36ZM27.118 15.04C26.8337 15.04 26.6027 15.1289 26.425 15.3067C26.2473 15.4844 26.1584 15.7156 26.1584 16V30.08H5.89986V16C5.89986 15.7156 5.81101 15.4844 5.6333 15.3067C5.4556 15.1289 5.22458 15.04 4.94025 15.04H3.23426L16.0291 2.24L28.824 15.04H27.118Z" fill="#470035"/>
<path d="M16 13C14.4178 13 12.871 13.4692 11.5554 14.3482C10.2398 15.2273 9.21447 16.4767 8.60897 17.9385C8.00347 19.4003 7.84504 21.0089 8.15372 22.5607C8.4624 24.1126 9.22433 25.538 10.3431 26.6569C11.462 27.7757 12.8874 28.5376 14.4393 28.8463C15.9911 29.155 17.5997 28.9965 19.0615 28.391C20.5233 27.7855 21.7727 26.7602 22.6518 25.4446C23.5308 24.129 24 22.5822 24 21C23.9978 18.879 23.1542 16.8454 21.6544 15.3456C20.1546 13.8458 18.121 13.0022 16 13ZM16 27.7692C14.6612 27.7692 13.3524 27.3722 12.2392 26.6284C11.126 25.8846 10.2584 24.8274 9.74605 23.5905C9.2337 22.3536 9.09965 20.9925 9.36084 19.6794C9.62203 18.3663 10.2667 17.1601 11.2134 16.2134C12.1601 15.2667 13.3663 14.622 14.6794 14.3608C15.9925 14.0996 17.3536 14.2337 18.5905 14.746C19.8274 15.2584 20.8846 16.126 21.6284 17.2392C22.3722 18.3524 22.7692 19.6612 22.7692 21C22.7672 22.7947 22.0534 24.5153 20.7843 25.7843C19.5153 27.0534 17.7947 27.7672 16 27.7692ZM19.4169 16.7569L14.4938 19.2185C14.3748 19.2782 14.2783 19.3748 14.2185 19.4938L11.7569 24.4169C11.71 24.5108 11.6878 24.6151 11.6925 24.7199C11.6972 24.8248 11.7286 24.9267 11.7838 25.0159C11.839 25.1052 11.9161 25.1789 12.0078 25.2299C12.0995 25.281 12.2027 25.3078 12.3077 25.3077C12.4032 25.3075 12.4975 25.2854 12.5831 25.2431L17.5062 22.7815C17.6252 22.7217 17.7218 22.6252 17.7815 22.5062L20.2431 17.5831C20.3012 17.4675 20.3213 17.3365 20.3007 17.2088C20.2801 17.0811 20.2198 16.9631 20.1283 16.8717C20.0369 16.7802 19.9189 16.7199 19.7912 16.6993C19.6635 16.6787 19.5325 16.6988 19.4169 16.7569ZM16.7692 21.7692L13.6838 23.3162L15.2308 20.2308L18.3192 18.6869L16.7692 21.7692Z" fill="#470035" stroke="#470035" stroke-width="0.4"/>
</g>
<defs>
<clipPath id="clip0_218_121">
<rect width="32" height="32" fill="white" transform="matrix(1 0 0 -1 0 32)"/>
</clipPath>
</defs>
</svg>
