<svg width="28" height="28" viewBox="0 0 28 28" fill="none" xmlns="http://www.w3.org/2000/svg">
<g clip-path="url(#clip0_167_1031)">
<path d="M15.1666 23.2609C17.5202 22.9615 19.6713 21.7771 21.1829 19.9485C22.6945 18.1199 23.4532 15.7844 23.3046 13.4166C23.156 11.0487 22.1114 8.82632 20.3831 7.20103C18.6548 5.57574 16.3725 4.66953 14 4.66659C11.6246 4.66482 9.33792 5.56881 7.60588 7.19438C5.87383 8.81994 4.82676 11.0447 4.67801 13.4155C4.52927 15.7862 5.29004 18.1244 6.80531 19.9537C8.32059 21.783 10.4763 22.9658 12.8333 23.2609V16.3333H10.5V13.9999H12.8333V12.0703C12.8333 10.5104 12.9966 9.94459 13.3 9.37409C13.5988 8.80964 14.0606 8.34822 14.6253 8.04992C15.071 7.81075 15.6251 7.66725 16.5935 7.60542C16.9773 7.58092 17.4743 7.61125 18.0845 7.69875V9.91542H17.5C16.4301 9.91542 15.988 9.96559 15.7243 10.1068C15.567 10.1877 15.4389 10.3158 15.358 10.4731C15.218 10.7368 15.1666 10.9981 15.1666 12.0691V13.9999H18.0833L17.5 16.3333H15.1666V23.2609ZM14 25.6666C7.55648 25.6666 2.33331 20.4434 2.33331 13.9999C2.33331 7.55642 7.55648 2.33325 14 2.33325C20.4435 2.33325 25.6666 7.55642 25.6666 13.9999C25.6666 20.4434 20.4435 25.6666 14 25.6666Z" fill="white"/>
</g>
<defs>
<clipPath id="clip0_167_1031">
<rect width="28" height="28" fill="white"/>
</clipPath>
</defs>
</svg>
