<svg width="28" height="28" viewBox="0 0 28 28" fill="none" xmlns="http://www.w3.org/2000/svg">
<g clip-path="url(#clip0_167_1025)">
<path d="M14 10.4999C13.0717 10.4999 12.1815 10.8687 11.5251 11.525C10.8687 12.1814 10.5 13.0717 10.5 13.9999C10.5 14.9282 10.8687 15.8184 11.5251 16.4748C12.1815 17.1312 13.0717 17.4999 14 17.4999C14.9282 17.4999 15.8185 17.1312 16.4749 16.4748C17.1312 15.8184 17.5 14.9282 17.5 13.9999C17.5 13.0717 17.1312 12.1814 16.4749 11.525C15.8185 10.8687 14.9282 10.4999 14 10.4999ZM14 8.16659C15.5471 8.16659 17.0308 8.78117 18.1248 9.87513C19.2187 10.9691 19.8333 12.4528 19.8333 13.9999C19.8333 15.547 19.2187 17.0307 18.1248 18.1247C17.0308 19.2187 15.5471 19.8333 14 19.8333C12.4529 19.8333 10.9692 19.2187 9.87519 18.1247C8.78123 17.0307 8.16665 15.547 8.16665 13.9999C8.16665 12.4528 8.78123 10.9691 9.87519 9.87513C10.9692 8.78117 12.4529 8.16659 14 8.16659ZM21.5833 7.87492C21.5833 8.26169 21.4297 8.63263 21.1562 8.90612C20.8827 9.17961 20.5118 9.33325 20.125 9.33325C19.7382 9.33325 19.3673 9.17961 19.0938 8.90612C18.8203 8.63263 18.6666 8.26169 18.6666 7.87492C18.6666 7.48814 18.8203 7.11721 19.0938 6.84372C19.3673 6.57023 19.7382 6.41659 20.125 6.41659C20.5118 6.41659 20.8827 6.57023 21.1562 6.84372C21.4297 7.11721 21.5833 7.48814 21.5833 7.87492ZM14 4.66659C11.1136 4.66659 10.6423 4.67475 9.29948 4.73425C8.38481 4.77742 7.77115 4.89992 7.20181 5.12159C6.69548 5.31759 6.33031 5.55209 5.94181 5.94175C5.57665 6.29455 5.29589 6.72527 5.12048 7.20175C4.89881 7.77342 4.77631 8.38592 4.73431 9.29942C4.67365 10.5874 4.66665 11.0378 4.66665 13.9999C4.66665 16.8863 4.67481 17.3576 4.73431 18.7004C4.77748 19.6139 4.89998 20.2288 5.12048 20.7969C5.31881 21.3044 5.55215 21.6696 5.93948 22.0569C6.33265 22.4489 6.69781 22.6834 7.19948 22.8771C7.77581 23.0999 8.38948 23.2236 9.29948 23.2656C10.5875 23.3263 11.0378 23.3333 14 23.3333C16.8863 23.3333 17.3576 23.3251 18.7005 23.2656C19.6128 23.2224 20.2276 23.0999 20.797 22.8794C21.3021 22.6823 21.6696 22.4478 22.057 22.0604C22.4501 21.6673 22.6846 21.3021 22.8783 20.8004C23.1 20.2253 23.2236 19.6104 23.2656 18.7004C23.3263 17.4124 23.3333 16.9621 23.3333 13.9999C23.3333 11.1136 23.3251 10.6423 23.2656 9.29942C23.2225 8.38709 23.1 7.77109 22.8783 7.20175C22.7025 6.72575 22.4222 6.29521 22.0581 5.94175C21.7055 5.57641 21.2747 5.29561 20.7981 5.12042C20.2265 4.89875 19.6128 4.77625 18.7005 4.73425C17.4125 4.67359 16.9621 4.66659 14 4.66659ZM14 2.33325C17.1698 2.33325 17.5653 2.34492 18.809 2.40325C20.0515 2.46159 20.8973 2.65642 21.6416 2.94575C22.4116 3.24209 23.0603 3.64342 23.709 4.29092C24.3022 4.87413 24.7613 5.57961 25.0541 6.35825C25.3423 7.10142 25.5383 7.94842 25.5966 9.19092C25.6515 10.4346 25.6666 10.8301 25.6666 13.9999C25.6666 17.1698 25.655 17.5653 25.5966 18.8089C25.5383 20.0514 25.3423 20.8973 25.0541 21.6416C24.7621 22.4207 24.303 23.1263 23.709 23.7089C23.1256 24.302 22.4202 24.761 21.6416 25.0541C20.8985 25.3423 20.0515 25.5383 18.809 25.5966C17.5653 25.6514 17.1698 25.6666 14 25.6666C10.8301 25.6666 10.4346 25.6549 9.19098 25.5966C7.94848 25.5383 7.10265 25.3423 6.35831 25.0541C5.57936 24.7618 4.87376 24.3027 4.29098 23.7089C3.69762 23.1258 3.23857 22.4203 2.94581 21.6416C2.65648 20.8984 2.46165 20.0514 2.40331 18.8089C2.34848 17.5653 2.33331 17.1698 2.33331 13.9999C2.33331 10.8301 2.34498 10.4346 2.40331 9.19092C2.46165 7.94725 2.65648 7.10259 2.94581 6.35825C3.23776 5.57913 3.69692 4.87346 4.29098 4.29092C4.87393 3.69736 5.57948 3.23827 6.35831 2.94575C7.10265 2.65642 7.94731 2.46159 9.19098 2.40325C10.4346 2.34842 10.8301 2.33325 14 2.33325Z" fill="white"/>
</g>
<defs>
<clipPath id="clip0_167_1025">
<rect width="28" height="28" fill="white"/>
</clipPath>
</defs>
</svg>
