<svg width="213" height="50" viewBox="0 0 213 50" fill="none" xmlns="http://www.w3.org/2000/svg">
<path d="M77.7915 34.8815C74.8168 38.5761 72.3391 42.3676 72.2395 44.701C72.1404 46.4511 73.3301 47.3262 75.3125 47.3262C78.5842 47.3262 82.2524 44.8956 84.2353 43.4372C86.3496 41.8819 88.5426 40.0193 89.8394 38.8049C90.3794 38.3369 90.9681 37.8062 91.1744 37.6036L91.2739 37.701C89.2911 40.0343 88.3988 41.7845 88.2997 43.7289C88.2005 46.2568 89.8859 47.6179 93.5542 47.6179C96.9246 47.6179 100.593 46.3539 104.756 43.6316C106.541 42.4647 109.713 39.9371 111.002 38.7703C111.597 38.2843 111.993 37.7983 111.795 37.5064C111.597 37.312 111.299 37.4091 110.705 37.8953C108.821 39.5481 106.541 41.2983 104.657 42.5622C100.295 45.4789 96.9246 46.1596 95.6358 46.1596C94.1486 46.1596 93.3555 45.3818 93.3555 43.9235C93.3555 43.3401 93.5542 42.4647 93.9507 41.6872C96.2306 41.1039 99.6014 39.9371 102.476 38.5761C105.45 37.1176 108.623 35.1731 108.821 32.6452C108.92 31.3811 108.127 30.0202 105.946 30.0202H105.847C103.171 30.0202 100.196 31.2842 97.3212 32.7422C95.4375 33.7147 93.5542 34.8815 92.4636 35.6591C90.9765 36.7286 90.0842 37.4091 88.7954 38.5761C88.7035 38.6661 88.6116 38.7562 88.5269 38.8452C87.5336 39.7053 86.4713 40.565 85.1272 41.5899C83.7396 42.6593 82.3516 43.6316 81.0627 44.3124C80.1705 44.7984 78.6837 45.3818 77.9894 44.8956C77.2958 44.3124 77.8906 42.951 78.188 42.2705C80.2696 37.7983 87.4078 28.756 94.0499 20.8808C98.2134 16.0197 106.937 6.58917 108.821 4.74144C108.821 4.45012 108.325 4.06083 107.334 4.06083C106.045 4.06083 104.955 4.64458 103.765 5.71373C99.4031 9.60291 95.3383 13.8806 91.9679 17.7698C87.7048 22.5337 82.8469 28.4645 80.2696 31.6728C77.4384 34.0016 74.0188 36.9078 73.1871 37.6554L73.1852 37.6572L73.1318 37.701C72.0413 38.6732 70.455 40.0343 68.373 41.6872C66.7872 42.951 64.9035 44.215 63.9121 44.701C63.1189 45.09 62.1275 45.4789 61.6318 45.09C61.2352 44.7983 61.2352 44.0206 61.9292 42.8539C62.8211 41.2983 64.1103 39.6453 65.3992 38.0899C67.4808 35.562 69.6619 33.1312 70.9507 31.6728C71.9421 30.5062 71.7438 30.0202 69.6619 30.1175C68.0756 30.1175 66.3906 31.3811 64.0112 33.8119C64.6057 32.1589 63.9304 30.2367 61.9292 30.1175C60.6816 30.0431 59.4732 30.1314 58.3071 30.349C64.1107 25.212 68.2415 19.407 71.0018 14.1192C72.3894 11.6429 73.6615 8.01396 73.8925 5.65165C74.2399 2.02237 72.8519 0 70.5393 0C68.4577 0 68.6891 2.81629 69.1517 4.51744C69.8457 7.22042 70.4237 9.6018 70.4237 10.8489C70.5393 11.7565 70.3078 12.8717 69.8457 13.6656C67.1856 18.2967 62.6758 23.3998 55.7375 29.2593C51.1122 33.2475 42.2077 39.1825 35.732 41.9231C27.8689 45.4766 20.1211 47.1777 13.8767 47.5179C20.9305 45.0042 30.413 39.6359 36.3104 34.1545C42.9017 28.144 50.6496 19.4306 51.5747 11.9835C52.6157 2.5893 45.3303 0.113312 38.7389 0.113312C32.6101 0.113312 25.6717 2.9296 20.1211 7.01249C13.9921 11.5296 10.0604 17.4078 9.48218 21.9253C9.01984 26.783 11.5638 30.0531 16.652 30.3933C21.8556 30.7335 27.7532 26.8963 30.7597 23.721C33.4194 20.9051 35.3852 17.2945 35.6164 14.2325C35.732 11.6429 34.5758 10.282 34.2288 9.9421C33.882 9.60179 33.4194 9.37517 33.3038 9.60179C33.1882 9.82878 33.4194 9.9421 33.7661 10.3957C34.2288 11.1896 34.3445 12.2102 34.2288 13.3253C33.9978 15.7067 31.6847 19.7705 29.1409 22.4926C25.9029 25.8761 21.2773 29.8261 16.8832 29.4862C12.8358 29.2593 11.448 25.9891 11.911 22.1522C12.489 17.5215 16.3049 11.6429 21.2773 7.78734C26.0185 4.17714 32.6101 1.13385 38.5075 1.13385C43.1328 1.13385 46.255 3.72352 45.4458 9.71547C44.4052 17.5215 37.3511 26.2161 31.2223 32.3211C23.4747 40.222 16.652 45.2497 11.5638 47.4044C8.90427 47.0643 6.82283 47.0643 4.39433 47.1777C2.31275 47.2912 0 47.8581 0 49.1056C0 50.0127 2.08158 50.1264 5.31947 49.8994C7.05398 49.786 9.48218 49.3325 11.3326 48.8789C19.1958 48.652 27.8689 47.1777 36.5415 43.87C38.9342 42.9176 41.3269 41.8363 43.6979 40.5983C43.055 41.6375 42.7172 42.5553 42.5974 43.4372C42.2009 46.5483 44.4811 47.4235 46.6622 47.3262C50.4292 47.1318 54.9893 43.9235 57.567 41.6872L57.6665 41.7845C56.7743 42.8539 56.1794 44.215 56.2786 45.2846C56.3777 46.4511 57.2696 47.3262 59.1533 47.3262C62.4249 47.3262 65.6962 44.9928 67.6791 43.4372C69.5627 41.9789 71.9421 39.9371 73.231 38.7703C73.6161 38.4267 73.9272 38.1437 74.1553 37.9086C75.1738 36.9943 76.4325 35.8544 77.6919 34.784L77.7915 34.8815ZM61.5327 31.0897C62.6232 31.0897 63.4164 31.5758 63.3172 32.8396C63.2181 34.3954 59.649 38.5761 56.4765 41.2983C53.7996 43.7289 50.0327 45.8678 48.1494 45.8678C47.455 45.8678 46.9593 45.5762 46.8601 44.8956C46.6622 43.6316 48.3473 41.1039 52.4121 37.2147C55.9811 33.7147 59.5498 31.0897 61.5327 31.0897ZM94.5456 40.6179C95.7345 38.6732 98.2134 35.562 99.7993 34.1037C101.782 32.2564 103.269 31.2842 104.162 31.2842C105.054 31.2842 105.45 31.7702 105.351 32.6452C105.252 34.0064 103.765 36.0481 101.286 37.701C99.2048 39.0621 96.528 40.1314 94.5456 40.6179ZM131.424 47.3262C134.498 47.3262 138.364 44.8956 140.347 43.4372C142.429 41.8816 145.403 39.2564 146.295 38.3811C146.989 37.701 147.286 37.312 147.088 37.1176C146.89 36.9233 146.592 37.0203 145.799 37.701C144.709 38.6732 142.726 40.4233 141.041 41.6872C138.859 43.3401 137.471 44.1176 136.282 44.701C135.489 45.09 134.398 45.4789 133.903 45.09C133.506 44.7983 133.506 44.215 134.299 42.951C134.795 42.1733 135.985 40.5204 137.571 38.6732C139.157 36.7286 141.239 34.4925 141.536 32.7422C141.735 31.0897 140.545 30.1175 138.463 30.1175C135.489 30.1175 131.127 32.8396 127.657 35.3674C124.187 37.8953 120.916 40.7147 118.537 42.6593L118.438 42.5622C119.528 41.0064 121.61 38.3811 123.097 36.437C124.386 34.687 125.179 33.4228 125.179 32.2564C125.179 31.1868 124.584 30.1175 122.7 30.1175C120.618 30.1175 118.636 31.2842 115.959 33.3257C114.174 34.687 111.993 36.7286 110.804 37.7983C109.614 38.8677 109.119 39.3537 109.316 39.6453C109.614 39.9371 110.011 39.6453 111.002 38.7703C112.39 37.5064 113.976 36.1453 115.265 35.0758C116.455 34.1037 117.942 33.034 119.131 32.4507C119.726 32.1589 120.321 31.9647 120.618 32.3536C120.817 32.6452 120.618 33.1312 119.925 34.0064C118.834 35.3674 117.05 37.6036 115.959 39.0621C114.373 41.1039 112.291 44.3124 111.597 45.5762C110.804 46.9372 111.498 47.1318 112.886 47.1318C113.976 47.1318 114.571 46.9372 115.463 46.2568C119.825 42.951 122.204 40.7147 126.567 37.4091C129.739 34.9787 132.515 33.3257 134.299 32.4507C135.291 31.9647 136.381 31.5758 136.877 31.8673C137.372 32.1589 137.174 32.7422 136.777 33.2285C135.588 34.5897 134.101 36.2426 132.614 37.9925C130.73 40.2289 128.549 42.6593 128.45 44.7983C128.351 46.4511 129.541 47.3262 131.424 47.3262ZM149.765 47.6179C153.135 47.6179 157.795 45.7705 161.264 43.4372C163.049 42.2705 165.825 39.9371 167.114 38.7703C167.708 38.187 168.105 37.7983 167.907 37.5064C167.708 37.312 167.411 37.4091 166.816 37.8953C165.23 39.2564 162.752 41.2983 160.868 42.5622C156.506 45.4789 153.036 46.0622 151.747 46.0622C150.161 46.0622 149.269 45.2846 149.467 43.8261C149.765 41.4927 152.342 37.7983 155.019 35.1731C157.795 32.3536 160.075 30.8952 161.165 31.0897C162.355 31.2842 161.958 32.4507 160.868 34.2981C159.976 35.7564 159.976 37.1176 161.661 37.1176C162.95 37.1176 164.635 35.6591 165.032 33.8119C165.428 31.9647 164.635 30.5062 162.355 30.1175C159.778 29.7285 156.605 30.9924 153.234 32.7422C151.549 33.6174 149.566 34.8815 148.476 35.6591C146.989 36.7286 146.097 37.4091 144.808 38.5761C144.411 38.9647 144.014 39.3537 144.213 39.6453C144.411 39.8399 144.907 39.5481 145.502 39.0621C146.097 38.5761 146.89 37.8953 147.187 37.6036L147.286 37.701C145.7 39.5481 144.609 41.5899 144.411 43.5345C144.213 46.1596 145.997 47.6179 149.666 47.6179H149.765ZM181.316 28.2703C183.199 28.2703 184.686 27.8814 185.281 26.4229C185.777 25.1593 185.677 23.7008 185.182 23.1174C184.191 23.1174 181.712 24.1866 180.522 25.7426C179.333 27.2007 179.928 28.2703 181.216 28.2703H181.316ZM175.045 32.8396C173.459 34.2008 169.592 38.187 167.609 41.201C166.816 42.3676 166.122 43.6316 166.122 44.8956C166.122 46.4511 167.014 47.4235 169.096 47.4235C172.368 47.4235 175.739 44.9928 177.721 43.4372C179.704 41.8816 182.182 39.7427 183.372 38.5761C183.669 38.2843 184.76 37.312 184.463 37.0203C184.165 36.7286 183.769 37.1176 182.876 37.8953C181.29 39.3537 180.398 40.1314 178.316 41.7845C176.631 43.1456 174.945 44.215 173.954 44.701C172.963 45.1872 172.071 45.3818 171.575 44.9928C171.178 44.604 171.278 43.9235 171.872 42.8539C172.467 41.8816 173.657 40.1314 175.342 38.0899C177.325 35.6591 178.911 33.8119 180.696 31.8673C181.885 30.6036 181.687 30.3118 179.605 30.3118C177.721 30.3118 176.432 30.7008 173.855 32.4507C171.476 34.0064 167.907 36.9233 166.816 37.8953C165.726 38.8677 165.528 39.2564 165.726 39.451C166.023 39.6453 166.42 39.3537 167.213 38.6732C168.204 37.7983 169.295 36.9233 170.782 35.7564C172.269 34.5897 174.351 33.1312 175.045 32.8396ZM202.406 33.8119C203.001 32.1589 202.307 30.4091 200.324 30.1175C197.747 29.7285 194.277 30.8952 190.411 32.8396C188.527 33.8119 186.842 34.8815 185.85 35.562C184.859 36.2426 183.174 37.6036 182.876 37.8953C181.786 38.8677 181.29 39.451 181.488 39.7427C181.687 39.9371 181.984 39.7427 182.381 39.451C182.975 38.9647 183.372 38.5761 183.669 38.2843L183.769 38.3811C181.984 40.4233 181.191 41.9789 180.993 43.4372C180.596 46.5483 182.876 47.4235 185.057 47.3262C188.824 47.1318 193.385 43.9235 195.963 41.6872L196.062 41.7845C195.169 42.8539 194.575 44.215 194.674 45.2846C194.773 46.4511 195.665 47.3262 197.549 47.3262C200.82 47.3262 204.091 44.9928 206.074 43.4372C207.958 41.9789 210.337 39.9371 211.626 38.7703C212.717 37.7983 213.212 37.312 212.915 37.0203C212.618 36.7286 212.122 37.2147 211.527 37.701C210.436 38.6732 208.85 40.0343 206.768 41.6872C205.182 42.951 203.299 44.215 202.307 44.701C201.514 45.09 200.523 45.4789 200.027 45.09C199.631 44.7983 199.631 44.0206 200.324 42.8539C201.217 41.2983 202.506 39.6453 203.794 38.0899C205.876 35.562 208.057 33.1312 209.346 31.6728C210.337 30.5062 210.139 30.0202 208.057 30.1175C206.471 30.1175 204.786 31.3811 202.406 33.8119ZM199.928 31.0897C201.018 31.0897 201.812 31.5758 201.712 32.8396C201.614 34.3954 198.045 38.5761 194.872 41.2983C192.195 43.7289 188.428 45.8678 186.545 45.8678C185.85 45.8678 185.355 45.5762 185.255 44.8956C185.057 43.6316 186.743 41.1039 190.807 37.2147C194.376 33.7147 197.945 31.0897 199.928 31.0897Z" fill="white"/>
</svg>
