<svg width="28" height="28" viewBox="0 0 28 28" fill="none" xmlns="http://www.w3.org/2000/svg">
<g clip-path="url(#clip0_167_1028)">
<path d="M17.85 6.47497C16.9633 6.47482 16.112 6.82278 15.4792 7.44397C14.8465 8.06515 14.4829 8.90991 14.4667 9.79647L14.434 11.634C14.4321 11.7326 14.4093 11.8298 14.3672 11.919C14.3252 12.0083 14.2647 12.0876 14.1898 12.1518C14.1148 12.2161 14.0272 12.2637 13.9326 12.2917C13.8379 12.3197 13.7385 12.3273 13.6407 12.3141L11.8195 12.0668C9.42317 11.7401 7.12717 10.6365 4.9245 8.8013C4.22684 12.663 5.5895 15.3381 8.87134 17.402L10.9095 18.683C11.0063 18.7438 11.0868 18.8275 11.1438 18.9266C11.2009 19.0258 11.2327 19.1374 11.2366 19.2517C11.2405 19.366 11.2164 19.4795 11.1663 19.5823C11.1162 19.6852 11.0416 19.7741 10.9492 19.8415L9.09184 21.1983C10.1967 21.2671 11.2455 21.2181 12.1158 21.0455C17.6202 19.9465 21.28 15.8048 21.28 8.9728C21.28 8.41514 20.0993 6.47497 17.85 6.47497ZM12.1333 9.7533C12.1537 8.6287 12.5054 7.53509 13.1443 6.6094C13.7833 5.68371 14.6811 4.96708 15.7254 4.54923C16.7697 4.13139 17.9141 4.0309 19.0152 4.26034C20.1163 4.48979 21.1253 5.03897 21.9158 5.83914C22.7453 5.8333 23.4512 6.0433 25.0297 5.08664C24.6388 6.99997 24.4463 7.83064 23.6133 8.9728C23.6133 17.8885 18.1335 22.2238 12.5732 23.3333C8.7605 24.094 3.2165 22.8445 1.6275 21.1855C2.43717 21.1225 5.72717 20.769 7.62884 19.3771C6.02 18.3166 -0.383831 14.5483 3.82434 4.41697C5.7995 6.72347 7.80267 8.2938 9.83267 9.1268C11.1837 9.68097 11.515 9.6693 12.1345 9.75447L12.1333 9.7533Z" fill="white"/>
</g>
<defs>
<clipPath id="clip0_167_1028">
<rect width="28" height="28" fill="white"/>
</clipPath>
</defs>
</svg>
